%
M48
M72
T01C0.0150
T02C0.0200
T03C0.0354
T04C0.0400
T05C0.0669
T06C0.0800
%
T01
X5375Y7354
X5075Y9408
X6575Y9408
X6975Y9358
X9075Y10208
X11925Y10658
X12700Y10993
X13030Y11113
X13360Y11233
X13638Y11045
X13863Y11286
X13385Y10831
X13606Y10586
X13092Y10275
X12700Y9861
X13175Y9358
X13243Y9028
X13243Y8698
X13466Y9703
X13825Y9908
X14276Y10390
X14594Y10539
X15021Y10561
X14923Y10231
X15327Y10231
X16525Y11108
X16877Y10658
X17425Y11158
X17693Y10556
X17975Y10258
X18143Y10556
X18275Y9958
X17975Y9333
X17427Y9563
X17077Y9595
X16747Y9607
X16411Y9258
X16475Y8558
X17262Y8408
X17592Y8403
X18375Y8258
X16875Y7763
X16325Y7833
X15375Y7258
X15325Y8858
X15525Y9138
X14932Y9250
X17468Y10208
X19125Y10008
X19595Y10008
X19925Y10008
X20725Y9358
X20775Y8808
X20425Y8408
X21925Y10408
X21575Y11258
X21775Y11558
X21275Y11783
X21025Y11158
X22675Y11158
X23225Y11158
X19875Y12234
X19875Y12564
X18625Y13258
X17225Y13608
X15925Y13558
X15494Y14213
X14925Y14664
X15705Y15058
X16187Y14558
X16608Y14858
X16875Y15058
X17248Y14795
X16981Y14595
X15375Y16108
X15175Y17108
X14265Y17808
X13675Y17108
X12434Y16949
X13825Y15131
X13600Y14889
X13225Y14034
X12834Y14349
X12675Y14008
X12325Y14008
X12675Y13658
X13628Y13555
X11725Y14962
X11275Y14962
X11306Y14632
X10856Y14408
X10532Y14265
X11441Y13800
X10375Y13308
X9425Y12958
X6225Y11908
X5075Y11908
X4225Y13958
X6525Y15258
X6525Y15658
X6525Y16058
X7825Y15508
X8725Y15458
X7825Y17108
X6775Y19258
X6278Y19258
X8375Y20958
X8875Y20958
X8875Y20458
X13243Y19043
X16075Y18658
X17775Y18558
X17775Y18208
X17775Y19058
X17875Y16958
X23875Y19208
X24325Y19158
X24167Y18850
X24625Y19408
X28478Y19258
X28975Y19258
X30575Y20958
X31075Y20958
X31075Y20458
X35443Y19043
X36465Y17808
X35875Y17108
X34634Y16949
X36025Y15131
X35800Y14889
X35034Y14349
X34875Y14008
X34525Y14008
X34875Y13658
X35425Y14034
X35828Y13555
X37125Y14664
X37694Y14213
X38387Y14558
X38808Y14858
X39075Y15058
X39448Y14795
X39181Y14595
X39425Y13608
X38125Y13558
X37905Y15058
X37575Y16108
X37375Y17108
X38275Y18658
X39975Y18558
X39975Y18208
X39975Y19058
X40075Y16958
X40825Y13258
X40175Y12008
X39845Y12008
X39625Y11158
X39893Y10556
X40175Y10258
X40343Y10556
X40475Y9958
X40175Y9333
X39627Y9563
X39277Y9595
X38947Y9607
X38611Y9258
X38675Y8558
X39462Y8408
X39792Y8403
X40575Y8258
X39075Y7763
X38525Y7833
X37575Y7258
X37525Y8858
X37725Y9138
X37132Y9250
X36025Y9908
X35666Y9703
X35375Y9358
X35443Y9028
X35443Y8698
X34900Y9861
X35292Y10275
X35806Y10586
X35585Y10831
X35838Y11045
X36063Y11286
X35560Y11233
X35230Y11113
X34900Y10993
X34125Y10658
X36476Y10390
X36794Y10539
X37221Y10561
X37123Y10231
X37527Y10231
X38725Y11108
X39077Y10658
X39668Y10208
X41325Y10008
X41795Y10008
X42125Y10008
X42925Y9358
X42975Y8808
X42625Y8408
X44125Y10408
X43775Y11258
X43975Y11558
X43475Y11783
X43225Y11158
X44875Y11158
X45425Y11158
X42075Y12234
X42075Y12564
X46270Y15008
X46367Y18850
X46525Y19158
X46825Y19408
X46075Y19208
X46125Y22958
X45925Y23258
X46825Y23258
X45675Y24658
X44125Y26608
X43775Y27458
X43975Y27758
X43475Y27983
X43225Y27358
X44875Y27358
X45425Y27358
X42925Y25558
X42125Y26208
X41795Y26208
X41325Y26208
X40475Y26158
X40175Y26458
X40343Y26756
X39893Y26756
X39668Y26408
X39077Y26858
X38725Y27308
X39625Y27358
X39845Y28208
X40175Y28208
X40825Y29458
X39425Y29808
X38125Y29758
X37694Y30413
X37125Y30864
X37905Y31258
X38387Y30758
X38808Y31058
X39075Y31258
X39448Y30995
X39181Y30795
X37575Y32308
X37375Y33308
X36465Y34008
X35875Y33308
X34634Y33149
X36025Y31331
X35800Y31089
X35034Y30549
X34875Y30208
X34525Y30208
X34875Y29858
X35425Y30234
X35828Y29755
X33925Y31162
X33475Y31162
X33506Y30832
X33056Y30608
X32732Y30465
X33641Y30000
X32575Y29508
X31625Y29158
X34125Y26858
X34900Y27193
X35230Y27313
X35560Y27433
X35838Y27245
X36063Y27486
X35585Y27031
X35806Y26786
X35292Y26475
X34900Y26061
X35375Y25558
X35443Y25228
X35443Y24898
X35666Y25903
X36025Y26108
X36476Y26590
X36794Y26739
X37221Y26761
X37123Y26431
X37527Y26431
X38947Y25807
X39277Y25795
X39627Y25763
X40175Y25533
X38611Y25458
X38675Y24758
X39462Y24608
X39792Y24603
X40575Y24458
X39075Y23963
X38525Y24033
X37575Y23458
X37525Y25058
X37725Y25338
X37132Y25450
X34609Y23592
X31275Y26408
X29175Y25558
X28775Y25608
X27275Y25608
X27575Y23554
X24625Y23258
X23925Y22958
X23725Y23258
X23475Y24658
X21925Y26608
X21575Y27458
X21775Y27758
X21275Y27983
X21025Y27358
X22675Y27358
X23225Y27358
X20725Y25558
X19925Y26208
X19595Y26208
X19125Y26208
X18275Y26158
X17975Y26458
X18143Y26756
X17693Y26756
X17468Y26408
X16877Y26858
X16525Y27308
X17425Y27358
X17645Y28208
X17975Y28208
X18625Y29458
X17225Y29808
X15925Y29758
X15494Y30413
X14925Y30864
X15705Y31258
X16187Y30758
X16608Y31058
X16875Y31258
X17248Y30995
X16981Y30795
X15375Y32308
X15175Y33308
X14265Y34008
X13675Y33308
X12434Y33149
X13825Y31331
X13600Y31089
X13225Y30234
X12834Y30549
X12675Y30208
X12325Y30208
X12675Y29858
X13628Y29755
X11725Y31162
X11275Y31162
X11306Y30832
X10856Y30608
X10532Y30465
X11441Y30000
X10375Y29508
X9425Y29158
X11925Y26858
X12700Y27193
X13030Y27313
X13360Y27433
X13638Y27245
X13863Y27486
X13385Y27031
X13606Y26786
X13092Y26475
X12700Y26061
X13175Y25558
X13243Y25228
X13243Y24898
X13466Y25903
X13825Y26108
X14276Y26590
X14594Y26739
X15021Y26761
X14923Y26431
X15327Y26431
X16747Y25807
X17077Y25795
X17427Y25763
X17975Y25533
X16411Y25458
X16475Y24758
X17262Y24608
X17592Y24603
X18375Y24458
X16875Y23963
X16325Y24033
X15375Y23458
X15325Y25058
X15525Y25338
X14932Y25450
X12409Y23592
X9075Y26408
X6975Y25558
X6575Y25608
X5075Y25608
X5375Y23554
X5075Y28108
X6225Y28108
X4225Y30158
X6525Y31458
X6525Y31858
X6525Y32258
X7825Y31708
X8725Y31658
X7825Y33308
X6775Y35458
X6278Y35458
X8375Y37158
X8875Y37158
X8875Y36658
X13243Y35243
X16075Y34858
X17775Y34758
X17775Y34408
X17775Y35258
X17875Y33158
X19875Y28764
X19875Y28434
X24070Y31208
X26425Y30158
X28725Y31458
X28725Y31858
X28725Y32258
X30025Y31708
X30925Y31658
X30025Y33308
X28975Y35458
X28478Y35458
X30575Y37158
X31075Y37158
X31075Y36658
X35443Y35243
X38275Y34858
X39975Y34758
X39975Y34408
X39975Y35258
X40075Y33158
X42075Y28764
X42075Y28434
X46270Y31208
X46367Y35050
X46525Y35358
X46825Y35608
X46075Y35408
X36775Y27608
X42625Y24608
X42975Y25008
X30025Y17108
X28725Y16058
X28725Y15658
X28725Y15258
X30025Y15508
X30925Y15458
X32732Y14265
X33056Y14408
X33506Y14632
X33475Y14962
X33925Y14962
X33641Y13800
X32575Y13308
X31625Y12958
X31275Y10208
X29175Y9358
X28775Y9408
X27275Y9408
X27575Y7354
X24625Y7058
X23925Y6758
X23725Y7058
X23475Y8458
X27275Y11908
X28425Y11908
X26425Y13958
X24070Y15008
X17975Y12008
X17645Y12008
X14575Y11408
X12409Y7392
X34609Y7392
X36775Y11408
X45675Y8458
X45925Y7058
X46125Y6758
X46825Y7058
X20775Y25008
X20425Y24608
X14575Y27608
X24167Y35050
X24325Y35358
X24625Y35608
X23875Y35408
X27275Y28108
X28425Y28108
T02
X21625Y28658
X21625Y29158
X21125Y29158
X21125Y28658
X21125Y29658
X21125Y30158
X21125Y30658
X21625Y30658
X21625Y30158
X21625Y29658
X43325Y29658
X43325Y30158
X43325Y30658
X43825Y30658
X43825Y30158
X43825Y29658
X43825Y29158
X43825Y28658
X43325Y28658
X43325Y29158
X43325Y14458
X43325Y13958
X43325Y13458
X43825Y13458
X43825Y13958
X43825Y14458
X43825Y12958
X43825Y12458
X43325Y12458
X43325Y12958
X21625Y12958
X21625Y12458
X21125Y12458
X21125Y12958
X21125Y13458
X21125Y13958
X21125Y14458
X21625Y14458
X21625Y13958
X21625Y13458
T03
X6284Y6568
X7466Y6568
X28484Y6568
X29666Y6568
X29666Y22768
X28484Y22768
X7466Y22768
X6284Y22768
T04
X4375Y23158
X4375Y24158
X9875Y23158
X10875Y23158
X11875Y23158
X12875Y23158
X13875Y23158
X14875Y23158
X15875Y23158
X16875Y23158
X17875Y23158
X18875Y23158
X19875Y23158
X19875Y22158
X18875Y22158
X17875Y22158
X16875Y22158
X15875Y22158
X14875Y22158
X13875Y22158
X12875Y22158
X11875Y22158
X10875Y22158
X9875Y22158
X10875Y20958
X10875Y19958
X11875Y19958
X11875Y20958
X12875Y20958
X13875Y20958
X13875Y19958
X12875Y19958
X14875Y19958
X14875Y20958
X15875Y20958
X16875Y20958
X16875Y19958
X15875Y19958
X17875Y19958
X17875Y20958
X18875Y20958
X18875Y19958
X19875Y19958
X20875Y19958
X19875Y20958
X26575Y23158
X26575Y24158
X32075Y23158
X33075Y23158
X34075Y23158
X35075Y23158
X36075Y23158
X37075Y23158
X38075Y23158
X39075Y23158
X40075Y23158
X41075Y23158
X42075Y23158
X42075Y22158
X41075Y22158
X40075Y22158
X39075Y22158
X38075Y22158
X37075Y22158
X36075Y22158
X35075Y22158
X34075Y22158
X33075Y22158
X32075Y22158
X33075Y20958
X33075Y19958
X34075Y19958
X34075Y20958
X35075Y20958
X36075Y20958
X36075Y19958
X35075Y19958
X37075Y19958
X37075Y20958
X38075Y20958
X39075Y20958
X39075Y19958
X38075Y19958
X40075Y19958
X40075Y20958
X41075Y20958
X41075Y19958
X42075Y19958
X43075Y19958
X42075Y20958
X26575Y7958
X26575Y6958
X32075Y6958
X33075Y6958
X34075Y6958
X35075Y6958
X36075Y6958
X37075Y6958
X38075Y6958
X39075Y6958
X40075Y6958
X41075Y6958
X42075Y6958
X42075Y5958
X41075Y5958
X40075Y5958
X39075Y5958
X38075Y5958
X37075Y5958
X36075Y5958
X35075Y5958
X34075Y5958
X33075Y5958
X32075Y5958
X19875Y5958
X18875Y5958
X17875Y5958
X16875Y5958
X15875Y5958
X14875Y5958
X13875Y5958
X12875Y5958
X11875Y5958
X10875Y5958
X9875Y5958
X9875Y6958
X10875Y6958
X11875Y6958
X12875Y6958
X13875Y6958
X14875Y6958
X15875Y6958
X16875Y6958
X17875Y6958
X18875Y6958
X19875Y6958
X4375Y6958
X4375Y7958
X10875Y36158
X10875Y37158
X11875Y37158
X11875Y36158
X12875Y36158
X13875Y36158
X13875Y37158
X12875Y37158
X14875Y37158
X14875Y36158
X15875Y36158
X16875Y36158
X16875Y37158
X15875Y37158
X17875Y37158
X17875Y36158
X18875Y36158
X18875Y37158
X19875Y37158
X19875Y36158
X20875Y36158
X33075Y36158
X33075Y37158
X34075Y37158
X34075Y36158
X35075Y36158
X36075Y36158
X36075Y37158
X35075Y37158
X37075Y37158
X37075Y36158
X38075Y36158
X39075Y36158
X39075Y37158
X38075Y37158
X40075Y37158
X40075Y36158
X41075Y36158
X41075Y37158
X42075Y37158
X42075Y36158
X43075Y36158
T05
X43075Y37158
X20875Y37158
X20875Y20958
X43075Y20958
T06
X29775Y26858
X27975Y26858
X7575Y26858
X5775Y26858
X5775Y10658
X7575Y10658
X27975Y10658
X29775Y10658
M30
