G75*
%MOIN*%
%OFA0B0*%
%FSLAX25Y25*%
%IPPOS*%
%LPD*%
%AMOC8*
5,1,8,0,0,1.08239X$1,22.5*
%
%ADD10R,0.05512X0.06299*%
%ADD11R,0.03937X0.04331*%
%ADD12R,0.06299X0.05512*%
%ADD13C,0.01181*%
%ADD14R,0.05748X0.07874*%
%ADD15R,0.09843X0.05610*%
%ADD16C,0.00400*%
%ADD17C,0.00197*%
%ADD18R,0.04331X0.03937*%
%ADD19R,0.02756X0.05906*%
%ADD20R,0.03937X0.02362*%
%ADD21R,0.03937X0.03150*%
%ADD22R,0.02165X0.04724*%
%ADD23R,0.04331X0.07874*%
%ADD24R,0.04724X0.02362*%
%ADD25R,0.03937X0.07087*%
%ADD26R,0.08661X0.03346*%
%ADD27R,0.04134X0.03937*%
%ADD28R,0.00984X0.02756*%
%ADD29R,0.02756X0.00984*%
%ADD30R,0.04800X0.08800*%
%ADD31R,0.14173X0.08661*%
%ADD32R,0.03150X0.04724*%
%ADD33R,0.00787X0.03150*%
%ADD34R,0.00787X0.03543*%
%ADD35R,0.04724X0.07874*%
%ADD36R,0.02362X0.05315*%
%ADD37R,0.04724X0.02165*%
%ADD38R,0.11024X0.09449*%
%ADD39R,0.02756X0.02756*%
%ADD40R,0.03268X0.02480*%
D10*
X0073738Y0117000D03*
X0084762Y0117000D03*
X0295738Y0117000D03*
X0306762Y0117000D03*
X0306762Y0279000D03*
X0295738Y0279000D03*
X0084762Y0279000D03*
X0073738Y0279000D03*
D11*
X0092750Y0279846D03*
X0098750Y0279846D03*
X0098750Y0273154D03*
X0092750Y0273154D03*
X0099250Y0289654D03*
X0105250Y0289654D03*
X0111250Y0289654D03*
X0117250Y0289654D03*
X0123050Y0289654D03*
X0123050Y0296346D03*
X0117250Y0296346D03*
X0111250Y0296346D03*
X0105250Y0296346D03*
X0099250Y0296346D03*
X0099250Y0302654D03*
X0099250Y0309346D03*
X0098750Y0332154D03*
X0098750Y0338846D03*
X0165250Y0297846D03*
X0171250Y0297846D03*
X0171250Y0291154D03*
X0165250Y0291154D03*
X0161250Y0266346D03*
X0155250Y0266346D03*
X0155250Y0259654D03*
X0161250Y0259654D03*
X0172250Y0260154D03*
X0172250Y0266846D03*
X0193750Y0266846D03*
X0193750Y0260154D03*
X0194250Y0251846D03*
X0194250Y0245154D03*
X0193250Y0230346D03*
X0199250Y0230346D03*
X0199250Y0223654D03*
X0193250Y0223654D03*
X0139750Y0259654D03*
X0139750Y0266346D03*
X0098750Y0176846D03*
X0098750Y0170154D03*
X0099250Y0147346D03*
X0099250Y0140654D03*
X0099250Y0134346D03*
X0105250Y0134346D03*
X0111250Y0134346D03*
X0117250Y0134346D03*
X0123050Y0134346D03*
X0123050Y0127654D03*
X0117250Y0127654D03*
X0111250Y0127654D03*
X0105250Y0127654D03*
X0099250Y0127654D03*
X0098750Y0117846D03*
X0092750Y0117846D03*
X0092750Y0111154D03*
X0098750Y0111154D03*
X0139750Y0104346D03*
X0139750Y0097654D03*
X0155250Y0097654D03*
X0161250Y0097654D03*
X0161250Y0104346D03*
X0155250Y0104346D03*
X0172250Y0104846D03*
X0172250Y0098154D03*
X0193750Y0098154D03*
X0193750Y0104846D03*
X0194250Y0089846D03*
X0194250Y0083154D03*
X0193250Y0068346D03*
X0199250Y0068346D03*
X0199250Y0061654D03*
X0193250Y0061654D03*
X0171250Y0129154D03*
X0165250Y0129154D03*
X0165250Y0135846D03*
X0171250Y0135846D03*
X0314750Y0117846D03*
X0320750Y0117846D03*
X0320750Y0111154D03*
X0314750Y0111154D03*
X0321250Y0127654D03*
X0327250Y0127654D03*
X0333250Y0127654D03*
X0339250Y0127654D03*
X0345050Y0127654D03*
X0345050Y0134346D03*
X0339250Y0134346D03*
X0333250Y0134346D03*
X0327250Y0134346D03*
X0321250Y0134346D03*
X0321250Y0140654D03*
X0321250Y0147346D03*
X0320750Y0170154D03*
X0320750Y0176846D03*
X0387250Y0135846D03*
X0393250Y0135846D03*
X0393250Y0129154D03*
X0387250Y0129154D03*
X0383250Y0104346D03*
X0377250Y0104346D03*
X0377250Y0097654D03*
X0383250Y0097654D03*
X0394250Y0098154D03*
X0394250Y0104846D03*
X0415750Y0104846D03*
X0415750Y0098154D03*
X0416250Y0089846D03*
X0416250Y0083154D03*
X0415250Y0068346D03*
X0421250Y0068346D03*
X0421250Y0061654D03*
X0415250Y0061654D03*
X0361750Y0097654D03*
X0361750Y0104346D03*
X0415250Y0223654D03*
X0421250Y0223654D03*
X0421250Y0230346D03*
X0415250Y0230346D03*
X0416250Y0245154D03*
X0416250Y0251846D03*
X0415750Y0260154D03*
X0415750Y0266846D03*
X0394250Y0266846D03*
X0394250Y0260154D03*
X0383250Y0259654D03*
X0377250Y0259654D03*
X0377250Y0266346D03*
X0383250Y0266346D03*
X0361750Y0266346D03*
X0361750Y0259654D03*
X0320750Y0273154D03*
X0314750Y0273154D03*
X0314750Y0279846D03*
X0320750Y0279846D03*
X0321250Y0289654D03*
X0327250Y0289654D03*
X0333250Y0289654D03*
X0339250Y0289654D03*
X0345050Y0289654D03*
X0345050Y0296346D03*
X0339250Y0296346D03*
X0333250Y0296346D03*
X0327250Y0296346D03*
X0321250Y0296346D03*
X0321250Y0302654D03*
X0321250Y0309346D03*
X0320750Y0332154D03*
X0320750Y0338846D03*
X0387250Y0297846D03*
X0393250Y0297846D03*
X0393250Y0291154D03*
X0387250Y0291154D03*
D12*
X0379250Y0291488D03*
X0379250Y0302512D03*
X0353250Y0302512D03*
X0353250Y0291488D03*
X0157250Y0291488D03*
X0157250Y0302512D03*
X0131250Y0302512D03*
X0131250Y0291488D03*
X0131250Y0140512D03*
X0131250Y0129488D03*
X0157250Y0129488D03*
X0157250Y0140512D03*
X0353250Y0140512D03*
X0353250Y0129488D03*
X0379250Y0129488D03*
X0379250Y0140512D03*
D13*
X0444519Y0075128D02*
X0444519Y0072372D01*
X0444519Y0075128D02*
X0447275Y0075128D01*
X0447275Y0072372D01*
X0444519Y0072372D01*
X0444519Y0073552D02*
X0447275Y0073552D01*
X0447275Y0074732D02*
X0444519Y0074732D01*
X0451425Y0075128D02*
X0451425Y0072372D01*
X0451425Y0075128D02*
X0454181Y0075128D01*
X0454181Y0072372D01*
X0451425Y0072372D01*
X0451425Y0073552D02*
X0454181Y0073552D01*
X0454181Y0074732D02*
X0451425Y0074732D01*
X0454181Y0069128D02*
X0454181Y0066372D01*
X0451425Y0066372D01*
X0451425Y0069128D01*
X0454181Y0069128D01*
X0454181Y0067552D02*
X0451425Y0067552D01*
X0451425Y0068732D02*
X0454181Y0068732D01*
X0447275Y0069128D02*
X0447275Y0066372D01*
X0444519Y0066372D01*
X0444519Y0069128D01*
X0447275Y0069128D01*
X0447275Y0067552D02*
X0444519Y0067552D01*
X0444519Y0068732D02*
X0447275Y0068732D01*
X0447275Y0063128D02*
X0447275Y0060372D01*
X0444519Y0060372D01*
X0444519Y0063128D01*
X0447275Y0063128D01*
X0447275Y0061552D02*
X0444519Y0061552D01*
X0444519Y0062732D02*
X0447275Y0062732D01*
X0454181Y0063128D02*
X0454181Y0060372D01*
X0451425Y0060372D01*
X0451425Y0063128D01*
X0454181Y0063128D01*
X0454181Y0061552D02*
X0451425Y0061552D01*
X0451425Y0062732D02*
X0454181Y0062732D01*
X0454181Y0057128D02*
X0454181Y0054372D01*
X0451425Y0054372D01*
X0451425Y0057128D01*
X0454181Y0057128D01*
X0454181Y0055552D02*
X0451425Y0055552D01*
X0451425Y0056732D02*
X0454181Y0056732D01*
X0447275Y0057128D02*
X0447275Y0054372D01*
X0444519Y0054372D01*
X0444519Y0057128D01*
X0447275Y0057128D01*
X0447275Y0055552D02*
X0444519Y0055552D01*
X0444519Y0056732D02*
X0447275Y0056732D01*
X0232181Y0057128D02*
X0232181Y0054372D01*
X0229425Y0054372D01*
X0229425Y0057128D01*
X0232181Y0057128D01*
X0232181Y0055552D02*
X0229425Y0055552D01*
X0229425Y0056732D02*
X0232181Y0056732D01*
X0225275Y0057128D02*
X0225275Y0054372D01*
X0222519Y0054372D01*
X0222519Y0057128D01*
X0225275Y0057128D01*
X0225275Y0055552D02*
X0222519Y0055552D01*
X0222519Y0056732D02*
X0225275Y0056732D01*
X0225275Y0060372D02*
X0225275Y0063128D01*
X0225275Y0060372D02*
X0222519Y0060372D01*
X0222519Y0063128D01*
X0225275Y0063128D01*
X0225275Y0061552D02*
X0222519Y0061552D01*
X0222519Y0062732D02*
X0225275Y0062732D01*
X0225275Y0066372D02*
X0225275Y0069128D01*
X0225275Y0066372D02*
X0222519Y0066372D01*
X0222519Y0069128D01*
X0225275Y0069128D01*
X0225275Y0067552D02*
X0222519Y0067552D01*
X0222519Y0068732D02*
X0225275Y0068732D01*
X0222519Y0072372D02*
X0222519Y0075128D01*
X0225275Y0075128D01*
X0225275Y0072372D01*
X0222519Y0072372D01*
X0222519Y0073552D02*
X0225275Y0073552D01*
X0225275Y0074732D02*
X0222519Y0074732D01*
X0229425Y0075128D02*
X0229425Y0072372D01*
X0229425Y0075128D02*
X0232181Y0075128D01*
X0232181Y0072372D01*
X0229425Y0072372D01*
X0229425Y0073552D02*
X0232181Y0073552D01*
X0232181Y0074732D02*
X0229425Y0074732D01*
X0232181Y0069128D02*
X0232181Y0066372D01*
X0229425Y0066372D01*
X0229425Y0069128D01*
X0232181Y0069128D01*
X0232181Y0067552D02*
X0229425Y0067552D01*
X0229425Y0068732D02*
X0232181Y0068732D01*
X0232181Y0063128D02*
X0232181Y0060372D01*
X0229425Y0060372D01*
X0229425Y0063128D01*
X0232181Y0063128D01*
X0232181Y0061552D02*
X0229425Y0061552D01*
X0229425Y0062732D02*
X0232181Y0062732D01*
X0232181Y0216372D02*
X0232181Y0219128D01*
X0232181Y0216372D02*
X0229425Y0216372D01*
X0229425Y0219128D01*
X0232181Y0219128D01*
X0232181Y0217552D02*
X0229425Y0217552D01*
X0229425Y0218732D02*
X0232181Y0218732D01*
X0225275Y0219128D02*
X0225275Y0216372D01*
X0222519Y0216372D01*
X0222519Y0219128D01*
X0225275Y0219128D01*
X0225275Y0217552D02*
X0222519Y0217552D01*
X0222519Y0218732D02*
X0225275Y0218732D01*
X0225275Y0222372D02*
X0225275Y0225128D01*
X0225275Y0222372D02*
X0222519Y0222372D01*
X0222519Y0225128D01*
X0225275Y0225128D01*
X0225275Y0223552D02*
X0222519Y0223552D01*
X0222519Y0224732D02*
X0225275Y0224732D01*
X0225275Y0228372D02*
X0225275Y0231128D01*
X0225275Y0228372D02*
X0222519Y0228372D01*
X0222519Y0231128D01*
X0225275Y0231128D01*
X0225275Y0229552D02*
X0222519Y0229552D01*
X0222519Y0230732D02*
X0225275Y0230732D01*
X0232181Y0231128D02*
X0232181Y0228372D01*
X0229425Y0228372D01*
X0229425Y0231128D01*
X0232181Y0231128D01*
X0232181Y0229552D02*
X0229425Y0229552D01*
X0229425Y0230732D02*
X0232181Y0230732D01*
X0232181Y0225128D02*
X0232181Y0222372D01*
X0229425Y0222372D01*
X0229425Y0225128D01*
X0232181Y0225128D01*
X0232181Y0223552D02*
X0229425Y0223552D01*
X0229425Y0224732D02*
X0232181Y0224732D01*
X0229425Y0234372D02*
X0229425Y0237128D01*
X0232181Y0237128D01*
X0232181Y0234372D01*
X0229425Y0234372D01*
X0229425Y0235552D02*
X0232181Y0235552D01*
X0232181Y0236732D02*
X0229425Y0236732D01*
X0222519Y0237128D02*
X0222519Y0234372D01*
X0222519Y0237128D02*
X0225275Y0237128D01*
X0225275Y0234372D01*
X0222519Y0234372D01*
X0222519Y0235552D02*
X0225275Y0235552D01*
X0225275Y0236732D02*
X0222519Y0236732D01*
X0444519Y0237128D02*
X0444519Y0234372D01*
X0444519Y0237128D02*
X0447275Y0237128D01*
X0447275Y0234372D01*
X0444519Y0234372D01*
X0444519Y0235552D02*
X0447275Y0235552D01*
X0447275Y0236732D02*
X0444519Y0236732D01*
X0451425Y0237128D02*
X0451425Y0234372D01*
X0451425Y0237128D02*
X0454181Y0237128D01*
X0454181Y0234372D01*
X0451425Y0234372D01*
X0451425Y0235552D02*
X0454181Y0235552D01*
X0454181Y0236732D02*
X0451425Y0236732D01*
X0454181Y0231128D02*
X0454181Y0228372D01*
X0451425Y0228372D01*
X0451425Y0231128D01*
X0454181Y0231128D01*
X0454181Y0229552D02*
X0451425Y0229552D01*
X0451425Y0230732D02*
X0454181Y0230732D01*
X0454181Y0225128D02*
X0454181Y0222372D01*
X0451425Y0222372D01*
X0451425Y0225128D01*
X0454181Y0225128D01*
X0454181Y0223552D02*
X0451425Y0223552D01*
X0451425Y0224732D02*
X0454181Y0224732D01*
X0447275Y0225128D02*
X0447275Y0222372D01*
X0444519Y0222372D01*
X0444519Y0225128D01*
X0447275Y0225128D01*
X0447275Y0223552D02*
X0444519Y0223552D01*
X0444519Y0224732D02*
X0447275Y0224732D01*
X0447275Y0228372D02*
X0447275Y0231128D01*
X0447275Y0228372D02*
X0444519Y0228372D01*
X0444519Y0231128D01*
X0447275Y0231128D01*
X0447275Y0229552D02*
X0444519Y0229552D01*
X0444519Y0230732D02*
X0447275Y0230732D01*
X0447275Y0219128D02*
X0447275Y0216372D01*
X0444519Y0216372D01*
X0444519Y0219128D01*
X0447275Y0219128D01*
X0447275Y0217552D02*
X0444519Y0217552D01*
X0444519Y0218732D02*
X0447275Y0218732D01*
X0454181Y0219128D02*
X0454181Y0216372D01*
X0451425Y0216372D01*
X0451425Y0219128D01*
X0454181Y0219128D01*
X0454181Y0217552D02*
X0451425Y0217552D01*
X0451425Y0218732D02*
X0454181Y0218732D01*
D14*
X0282333Y0279083D03*
X0282333Y0301917D03*
X0060333Y0301917D03*
X0060333Y0279083D03*
X0060333Y0139917D03*
X0060333Y0117083D03*
X0282333Y0117083D03*
X0282333Y0139917D03*
D15*
X0270719Y0132289D03*
X0270719Y0124711D03*
X0048719Y0124711D03*
X0048719Y0132289D03*
X0048719Y0286711D03*
X0048719Y0294289D03*
X0270719Y0294289D03*
X0270719Y0286711D03*
D16*
X0268690Y0282694D02*
X0268401Y0282661D01*
X0268126Y0282565D01*
X0267880Y0282410D01*
X0267674Y0282204D01*
X0267519Y0281958D01*
X0267423Y0281683D01*
X0267390Y0281394D01*
X0267390Y0278494D01*
X0267420Y0278227D01*
X0267509Y0277973D01*
X0267652Y0277746D01*
X0267842Y0277555D01*
X0268070Y0277413D01*
X0268323Y0277324D01*
X0268590Y0277294D01*
X0275490Y0277294D01*
X0275528Y0277286D01*
X0275561Y0277264D01*
X0275583Y0277232D01*
X0275590Y0277194D01*
X0275590Y0275294D01*
X0278690Y0275294D01*
X0278690Y0282694D01*
X0268690Y0282694D01*
X0267821Y0282352D02*
X0278690Y0282352D01*
X0278690Y0281953D02*
X0267517Y0281953D01*
X0267408Y0281555D02*
X0278690Y0281555D01*
X0278690Y0281156D02*
X0267390Y0281156D01*
X0267390Y0280758D02*
X0278690Y0280758D01*
X0278690Y0280359D02*
X0267390Y0280359D01*
X0267390Y0279961D02*
X0278690Y0279961D01*
X0278690Y0279562D02*
X0267390Y0279562D01*
X0267390Y0279164D02*
X0278690Y0279164D01*
X0278690Y0278765D02*
X0267390Y0278765D01*
X0267404Y0278367D02*
X0278690Y0278367D01*
X0278690Y0277968D02*
X0267512Y0277968D01*
X0267828Y0277570D02*
X0278690Y0277570D01*
X0278690Y0277171D02*
X0275590Y0277171D01*
X0275590Y0276773D02*
X0278690Y0276773D01*
X0278690Y0276374D02*
X0275590Y0276374D01*
X0275590Y0275976D02*
X0278690Y0275976D01*
X0278690Y0275577D02*
X0275590Y0275577D01*
X0278690Y0298357D02*
X0268690Y0298357D01*
X0268401Y0298389D01*
X0268126Y0298486D01*
X0267880Y0298640D01*
X0267674Y0298846D01*
X0267519Y0299093D01*
X0267423Y0299368D01*
X0267390Y0299657D01*
X0267390Y0302557D01*
X0267420Y0302824D01*
X0267509Y0303077D01*
X0267652Y0303305D01*
X0267842Y0303495D01*
X0268070Y0303638D01*
X0268323Y0303727D01*
X0268590Y0303757D01*
X0275490Y0303757D01*
X0275528Y0303764D01*
X0275561Y0303786D01*
X0275583Y0303819D01*
X0275590Y0303857D01*
X0275590Y0305757D01*
X0278690Y0305757D01*
X0278690Y0298357D01*
X0278690Y0298691D02*
X0267829Y0298691D01*
X0267521Y0299089D02*
X0278690Y0299089D01*
X0278690Y0299488D02*
X0267409Y0299488D01*
X0267390Y0299886D02*
X0278690Y0299886D01*
X0278690Y0300285D02*
X0267390Y0300285D01*
X0267390Y0300683D02*
X0278690Y0300683D01*
X0278690Y0301082D02*
X0267390Y0301082D01*
X0267390Y0301480D02*
X0278690Y0301480D01*
X0278690Y0301879D02*
X0267390Y0301879D01*
X0267390Y0302277D02*
X0278690Y0302277D01*
X0278690Y0302676D02*
X0267404Y0302676D01*
X0267508Y0303074D02*
X0278690Y0303074D01*
X0278690Y0303473D02*
X0267820Y0303473D01*
X0275590Y0303871D02*
X0278690Y0303871D01*
X0278690Y0304270D02*
X0275590Y0304270D01*
X0275590Y0304668D02*
X0278690Y0304668D01*
X0278690Y0305067D02*
X0275590Y0305067D01*
X0275590Y0305465D02*
X0278690Y0305465D01*
X0056690Y0305465D02*
X0053590Y0305465D01*
X0053590Y0305757D02*
X0056690Y0305757D01*
X0056690Y0298357D01*
X0046690Y0298357D01*
X0046401Y0298389D01*
X0046126Y0298486D01*
X0045880Y0298640D01*
X0045674Y0298846D01*
X0045519Y0299093D01*
X0045423Y0299368D01*
X0045390Y0299657D01*
X0045390Y0302557D01*
X0045420Y0302824D01*
X0045509Y0303077D01*
X0045652Y0303305D01*
X0045842Y0303495D01*
X0046070Y0303638D01*
X0046323Y0303727D01*
X0046590Y0303757D01*
X0053490Y0303757D01*
X0053528Y0303764D01*
X0053561Y0303786D01*
X0053583Y0303819D01*
X0053590Y0303857D01*
X0053590Y0305757D01*
X0053590Y0305067D02*
X0056690Y0305067D01*
X0056690Y0304668D02*
X0053590Y0304668D01*
X0053590Y0304270D02*
X0056690Y0304270D01*
X0056690Y0303871D02*
X0053590Y0303871D01*
X0056690Y0303473D02*
X0045820Y0303473D01*
X0045508Y0303074D02*
X0056690Y0303074D01*
X0056690Y0302676D02*
X0045404Y0302676D01*
X0045390Y0302277D02*
X0056690Y0302277D01*
X0056690Y0301879D02*
X0045390Y0301879D01*
X0045390Y0301480D02*
X0056690Y0301480D01*
X0056690Y0301082D02*
X0045390Y0301082D01*
X0045390Y0300683D02*
X0056690Y0300683D01*
X0056690Y0300285D02*
X0045390Y0300285D01*
X0045390Y0299886D02*
X0056690Y0299886D01*
X0056690Y0299488D02*
X0045409Y0299488D01*
X0045521Y0299089D02*
X0056690Y0299089D01*
X0056690Y0298691D02*
X0045829Y0298691D01*
X0046690Y0282694D02*
X0046401Y0282661D01*
X0046126Y0282565D01*
X0045880Y0282410D01*
X0045674Y0282204D01*
X0045519Y0281958D01*
X0045423Y0281683D01*
X0045390Y0281394D01*
X0045390Y0278494D01*
X0045420Y0278227D01*
X0045509Y0277973D01*
X0045652Y0277746D01*
X0045842Y0277555D01*
X0046070Y0277413D01*
X0046323Y0277324D01*
X0046590Y0277294D01*
X0053490Y0277294D01*
X0053528Y0277286D01*
X0053561Y0277264D01*
X0053583Y0277232D01*
X0053590Y0277194D01*
X0053590Y0275294D01*
X0056690Y0275294D01*
X0056690Y0282694D01*
X0046690Y0282694D01*
X0045821Y0282352D02*
X0056690Y0282352D01*
X0056690Y0281953D02*
X0045517Y0281953D01*
X0045408Y0281555D02*
X0056690Y0281555D01*
X0056690Y0281156D02*
X0045390Y0281156D01*
X0045390Y0280758D02*
X0056690Y0280758D01*
X0056690Y0280359D02*
X0045390Y0280359D01*
X0045390Y0279961D02*
X0056690Y0279961D01*
X0056690Y0279562D02*
X0045390Y0279562D01*
X0045390Y0279164D02*
X0056690Y0279164D01*
X0056690Y0278765D02*
X0045390Y0278765D01*
X0045404Y0278367D02*
X0056690Y0278367D01*
X0056690Y0277968D02*
X0045512Y0277968D01*
X0045828Y0277570D02*
X0056690Y0277570D01*
X0056690Y0277171D02*
X0053590Y0277171D01*
X0053590Y0276773D02*
X0056690Y0276773D01*
X0056690Y0276374D02*
X0053590Y0276374D01*
X0053590Y0275976D02*
X0056690Y0275976D01*
X0056690Y0275577D02*
X0053590Y0275577D01*
X0053590Y0143757D02*
X0056690Y0143757D01*
X0056690Y0136357D01*
X0046690Y0136357D01*
X0046401Y0136389D01*
X0046126Y0136486D01*
X0045880Y0136640D01*
X0045674Y0136846D01*
X0045519Y0137093D01*
X0045423Y0137368D01*
X0045390Y0137657D01*
X0045390Y0140557D01*
X0045420Y0140824D01*
X0045509Y0141077D01*
X0045652Y0141305D01*
X0045842Y0141495D01*
X0046070Y0141638D01*
X0046323Y0141727D01*
X0046590Y0141757D01*
X0053490Y0141757D01*
X0053528Y0141764D01*
X0053561Y0141786D01*
X0053583Y0141819D01*
X0053590Y0141857D01*
X0053590Y0143757D01*
X0053590Y0143670D02*
X0056690Y0143670D01*
X0056690Y0143271D02*
X0053590Y0143271D01*
X0053590Y0142873D02*
X0056690Y0142873D01*
X0056690Y0142474D02*
X0053590Y0142474D01*
X0053590Y0142076D02*
X0056690Y0142076D01*
X0056690Y0141677D02*
X0046182Y0141677D01*
X0045635Y0141279D02*
X0056690Y0141279D01*
X0056690Y0140880D02*
X0045440Y0140880D01*
X0045390Y0140482D02*
X0056690Y0140482D01*
X0056690Y0140083D02*
X0045390Y0140083D01*
X0045390Y0139685D02*
X0056690Y0139685D01*
X0056690Y0139286D02*
X0045390Y0139286D01*
X0045390Y0138888D02*
X0056690Y0138888D01*
X0056690Y0138489D02*
X0045390Y0138489D01*
X0045390Y0138091D02*
X0056690Y0138091D01*
X0056690Y0137692D02*
X0045390Y0137692D01*
X0045449Y0137294D02*
X0056690Y0137294D01*
X0056690Y0136895D02*
X0045643Y0136895D01*
X0046109Y0136497D02*
X0056690Y0136497D01*
X0056690Y0120694D02*
X0046690Y0120694D01*
X0046401Y0120661D01*
X0046126Y0120565D01*
X0045880Y0120410D01*
X0045674Y0120204D01*
X0045519Y0119958D01*
X0045423Y0119683D01*
X0045390Y0119394D01*
X0045390Y0116494D01*
X0045420Y0116227D01*
X0045509Y0115973D01*
X0045652Y0115746D01*
X0045842Y0115555D01*
X0046070Y0115413D01*
X0046323Y0115324D01*
X0046590Y0115294D01*
X0053490Y0115294D01*
X0053528Y0115286D01*
X0053561Y0115264D01*
X0053583Y0115232D01*
X0053590Y0115194D01*
X0053590Y0113294D01*
X0056690Y0113294D01*
X0056690Y0120694D01*
X0056690Y0120556D02*
X0046112Y0120556D01*
X0045644Y0120158D02*
X0056690Y0120158D01*
X0056690Y0119759D02*
X0045449Y0119759D01*
X0045390Y0119361D02*
X0056690Y0119361D01*
X0056690Y0118962D02*
X0045390Y0118962D01*
X0045390Y0118564D02*
X0056690Y0118564D01*
X0056690Y0118165D02*
X0045390Y0118165D01*
X0045390Y0117767D02*
X0056690Y0117767D01*
X0056690Y0117368D02*
X0045390Y0117368D01*
X0045390Y0116970D02*
X0056690Y0116970D01*
X0056690Y0116571D02*
X0045390Y0116571D01*
X0045439Y0116172D02*
X0056690Y0116172D01*
X0056690Y0115774D02*
X0045634Y0115774D01*
X0046175Y0115375D02*
X0056690Y0115375D01*
X0056690Y0114977D02*
X0053590Y0114977D01*
X0053590Y0114578D02*
X0056690Y0114578D01*
X0056690Y0114180D02*
X0053590Y0114180D01*
X0053590Y0113781D02*
X0056690Y0113781D01*
X0056690Y0113383D02*
X0053590Y0113383D01*
X0267390Y0116494D02*
X0267420Y0116227D01*
X0267509Y0115973D01*
X0267652Y0115746D01*
X0267842Y0115555D01*
X0268070Y0115413D01*
X0268323Y0115324D01*
X0268590Y0115294D01*
X0275490Y0115294D01*
X0275528Y0115286D01*
X0275561Y0115264D01*
X0275583Y0115232D01*
X0275590Y0115194D01*
X0275590Y0113294D01*
X0278690Y0113294D01*
X0278690Y0120694D01*
X0268690Y0120694D01*
X0268401Y0120661D01*
X0268126Y0120565D01*
X0267880Y0120410D01*
X0267674Y0120204D01*
X0267519Y0119958D01*
X0267423Y0119683D01*
X0267390Y0119394D01*
X0267390Y0116494D01*
X0267390Y0116571D02*
X0278690Y0116571D01*
X0278690Y0116970D02*
X0267390Y0116970D01*
X0267390Y0117368D02*
X0278690Y0117368D01*
X0278690Y0117767D02*
X0267390Y0117767D01*
X0267390Y0118165D02*
X0278690Y0118165D01*
X0278690Y0118564D02*
X0267390Y0118564D01*
X0267390Y0118962D02*
X0278690Y0118962D01*
X0278690Y0119361D02*
X0267390Y0119361D01*
X0267449Y0119759D02*
X0278690Y0119759D01*
X0278690Y0120158D02*
X0267644Y0120158D01*
X0268112Y0120556D02*
X0278690Y0120556D01*
X0278690Y0116172D02*
X0267439Y0116172D01*
X0267634Y0115774D02*
X0278690Y0115774D01*
X0278690Y0115375D02*
X0268175Y0115375D01*
X0275590Y0114977D02*
X0278690Y0114977D01*
X0278690Y0114578D02*
X0275590Y0114578D01*
X0275590Y0114180D02*
X0278690Y0114180D01*
X0278690Y0113781D02*
X0275590Y0113781D01*
X0275590Y0113383D02*
X0278690Y0113383D01*
X0278690Y0136357D02*
X0268690Y0136357D01*
X0268401Y0136389D01*
X0268126Y0136486D01*
X0267880Y0136640D01*
X0267674Y0136846D01*
X0267519Y0137093D01*
X0267423Y0137368D01*
X0267390Y0137657D01*
X0267390Y0140557D01*
X0267420Y0140824D01*
X0267509Y0141077D01*
X0267652Y0141305D01*
X0267842Y0141495D01*
X0268070Y0141638D01*
X0268323Y0141727D01*
X0268590Y0141757D01*
X0275490Y0141757D01*
X0275528Y0141764D01*
X0275561Y0141786D01*
X0275583Y0141819D01*
X0275590Y0141857D01*
X0275590Y0143757D01*
X0278690Y0143757D01*
X0278690Y0136357D01*
X0278690Y0136497D02*
X0268109Y0136497D01*
X0267643Y0136895D02*
X0278690Y0136895D01*
X0278690Y0137294D02*
X0267449Y0137294D01*
X0267390Y0137692D02*
X0278690Y0137692D01*
X0278690Y0138091D02*
X0267390Y0138091D01*
X0267390Y0138489D02*
X0278690Y0138489D01*
X0278690Y0138888D02*
X0267390Y0138888D01*
X0267390Y0139286D02*
X0278690Y0139286D01*
X0278690Y0139685D02*
X0267390Y0139685D01*
X0267390Y0140083D02*
X0278690Y0140083D01*
X0278690Y0140482D02*
X0267390Y0140482D01*
X0267440Y0140880D02*
X0278690Y0140880D01*
X0278690Y0141279D02*
X0267635Y0141279D01*
X0268182Y0141677D02*
X0278690Y0141677D01*
X0278690Y0142076D02*
X0275590Y0142076D01*
X0275590Y0142474D02*
X0278690Y0142474D01*
X0278690Y0142873D02*
X0275590Y0142873D01*
X0275590Y0143271D02*
X0278690Y0143271D01*
X0278690Y0143670D02*
X0275590Y0143670D01*
D17*
X0278077Y0134110D02*
X0284475Y0134110D01*
X0284475Y0133126D01*
X0278077Y0133126D01*
X0278077Y0134110D01*
X0278077Y0133995D02*
X0284475Y0133995D01*
X0284475Y0133800D02*
X0278077Y0133800D01*
X0278077Y0133605D02*
X0284475Y0133605D01*
X0284475Y0133409D02*
X0278077Y0133409D01*
X0278077Y0133214D02*
X0284475Y0133214D01*
X0284475Y0131551D02*
X0278077Y0131551D01*
X0278077Y0130567D01*
X0284475Y0130567D01*
X0284475Y0131551D01*
X0284475Y0131456D02*
X0278077Y0131456D01*
X0278077Y0131260D02*
X0284475Y0131260D01*
X0284475Y0131065D02*
X0278077Y0131065D01*
X0278077Y0130870D02*
X0284475Y0130870D01*
X0284475Y0130674D02*
X0278077Y0130674D01*
X0278077Y0128992D02*
X0284475Y0128992D01*
X0284475Y0128008D01*
X0278077Y0128008D01*
X0278077Y0128992D01*
X0278077Y0128916D02*
X0284475Y0128916D01*
X0284475Y0128721D02*
X0278077Y0128721D01*
X0278077Y0128525D02*
X0284475Y0128525D01*
X0284475Y0128330D02*
X0278077Y0128330D01*
X0278077Y0128134D02*
X0284475Y0128134D01*
X0284475Y0126433D02*
X0278077Y0126433D01*
X0278077Y0125449D01*
X0284475Y0125449D01*
X0284475Y0126433D01*
X0284475Y0126376D02*
X0278077Y0126376D01*
X0278077Y0126181D02*
X0284475Y0126181D01*
X0284475Y0125985D02*
X0278077Y0125985D01*
X0278077Y0125790D02*
X0284475Y0125790D01*
X0284475Y0125595D02*
X0278077Y0125595D01*
X0278077Y0123874D02*
X0284475Y0123874D01*
X0284475Y0122890D01*
X0278077Y0122890D01*
X0278077Y0123874D01*
X0278077Y0123837D02*
X0284475Y0123837D01*
X0284475Y0123641D02*
X0278077Y0123641D01*
X0278077Y0123446D02*
X0284475Y0123446D01*
X0284475Y0123250D02*
X0278077Y0123250D01*
X0278077Y0123055D02*
X0284475Y0123055D01*
X0062475Y0123055D02*
X0056077Y0123055D01*
X0056077Y0122890D02*
X0056077Y0123874D01*
X0062475Y0123874D01*
X0062475Y0122890D01*
X0056077Y0122890D01*
X0056077Y0123250D02*
X0062475Y0123250D01*
X0062475Y0123446D02*
X0056077Y0123446D01*
X0056077Y0123641D02*
X0062475Y0123641D01*
X0062475Y0123837D02*
X0056077Y0123837D01*
X0056077Y0125449D02*
X0056077Y0126433D01*
X0062475Y0126433D01*
X0062475Y0125449D01*
X0056077Y0125449D01*
X0056077Y0125595D02*
X0062475Y0125595D01*
X0062475Y0125790D02*
X0056077Y0125790D01*
X0056077Y0125985D02*
X0062475Y0125985D01*
X0062475Y0126181D02*
X0056077Y0126181D01*
X0056077Y0126376D02*
X0062475Y0126376D01*
X0062475Y0128008D02*
X0056077Y0128008D01*
X0056077Y0128992D01*
X0062475Y0128992D01*
X0062475Y0128008D01*
X0062475Y0128134D02*
X0056077Y0128134D01*
X0056077Y0128330D02*
X0062475Y0128330D01*
X0062475Y0128525D02*
X0056077Y0128525D01*
X0056077Y0128721D02*
X0062475Y0128721D01*
X0062475Y0128916D02*
X0056077Y0128916D01*
X0056077Y0130567D02*
X0056077Y0131551D01*
X0062475Y0131551D01*
X0062475Y0130567D01*
X0056077Y0130567D01*
X0056077Y0130674D02*
X0062475Y0130674D01*
X0062475Y0130870D02*
X0056077Y0130870D01*
X0056077Y0131065D02*
X0062475Y0131065D01*
X0062475Y0131260D02*
X0056077Y0131260D01*
X0056077Y0131456D02*
X0062475Y0131456D01*
X0062475Y0133126D02*
X0056077Y0133126D01*
X0056077Y0134110D01*
X0062475Y0134110D01*
X0062475Y0133126D01*
X0062475Y0133214D02*
X0056077Y0133214D01*
X0056077Y0133409D02*
X0062475Y0133409D01*
X0062475Y0133605D02*
X0056077Y0133605D01*
X0056077Y0133800D02*
X0062475Y0133800D01*
X0062475Y0133995D02*
X0056077Y0133995D01*
X0056077Y0284890D02*
X0056077Y0285874D01*
X0062475Y0285874D01*
X0062475Y0284890D01*
X0056077Y0284890D01*
X0056077Y0285010D02*
X0062475Y0285010D01*
X0062475Y0285205D02*
X0056077Y0285205D01*
X0056077Y0285401D02*
X0062475Y0285401D01*
X0062475Y0285596D02*
X0056077Y0285596D01*
X0056077Y0285791D02*
X0062475Y0285791D01*
X0062475Y0287449D02*
X0056077Y0287449D01*
X0056077Y0288433D01*
X0062475Y0288433D01*
X0062475Y0287449D01*
X0062475Y0287550D02*
X0056077Y0287550D01*
X0056077Y0287745D02*
X0062475Y0287745D01*
X0062475Y0287940D02*
X0056077Y0287940D01*
X0056077Y0288136D02*
X0062475Y0288136D01*
X0062475Y0288331D02*
X0056077Y0288331D01*
X0056077Y0290008D02*
X0056077Y0290992D01*
X0062475Y0290992D01*
X0062475Y0290008D01*
X0056077Y0290008D01*
X0056077Y0290089D02*
X0062475Y0290089D01*
X0062475Y0290285D02*
X0056077Y0290285D01*
X0056077Y0290480D02*
X0062475Y0290480D01*
X0062475Y0290675D02*
X0056077Y0290675D01*
X0056077Y0290871D02*
X0062475Y0290871D01*
X0062475Y0292567D02*
X0056077Y0292567D01*
X0056077Y0293551D01*
X0062475Y0293551D01*
X0062475Y0292567D01*
X0062475Y0292629D02*
X0056077Y0292629D01*
X0056077Y0292824D02*
X0062475Y0292824D01*
X0062475Y0293020D02*
X0056077Y0293020D01*
X0056077Y0293215D02*
X0062475Y0293215D01*
X0062475Y0293410D02*
X0056077Y0293410D01*
X0056077Y0295126D02*
X0056077Y0296110D01*
X0062475Y0296110D01*
X0062475Y0295126D01*
X0056077Y0295126D01*
X0056077Y0295169D02*
X0062475Y0295169D01*
X0062475Y0295364D02*
X0056077Y0295364D01*
X0056077Y0295559D02*
X0062475Y0295559D01*
X0062475Y0295755D02*
X0056077Y0295755D01*
X0056077Y0295950D02*
X0062475Y0295950D01*
X0278077Y0295950D02*
X0284475Y0295950D01*
X0284475Y0296110D02*
X0278077Y0296110D01*
X0278077Y0295126D01*
X0284475Y0295126D01*
X0284475Y0296110D01*
X0284475Y0295755D02*
X0278077Y0295755D01*
X0278077Y0295559D02*
X0284475Y0295559D01*
X0284475Y0295364D02*
X0278077Y0295364D01*
X0278077Y0295169D02*
X0284475Y0295169D01*
X0284475Y0293551D02*
X0278077Y0293551D01*
X0278077Y0292567D01*
X0284475Y0292567D01*
X0284475Y0293551D01*
X0284475Y0293410D02*
X0278077Y0293410D01*
X0278077Y0293215D02*
X0284475Y0293215D01*
X0284475Y0293020D02*
X0278077Y0293020D01*
X0278077Y0292824D02*
X0284475Y0292824D01*
X0284475Y0292629D02*
X0278077Y0292629D01*
X0278077Y0290992D02*
X0284475Y0290992D01*
X0284475Y0290008D01*
X0278077Y0290008D01*
X0278077Y0290992D01*
X0278077Y0290871D02*
X0284475Y0290871D01*
X0284475Y0290675D02*
X0278077Y0290675D01*
X0278077Y0290480D02*
X0284475Y0290480D01*
X0284475Y0290285D02*
X0278077Y0290285D01*
X0278077Y0290089D02*
X0284475Y0290089D01*
X0284475Y0288433D02*
X0278077Y0288433D01*
X0278077Y0287449D01*
X0284475Y0287449D01*
X0284475Y0288433D01*
X0284475Y0288331D02*
X0278077Y0288331D01*
X0278077Y0288136D02*
X0284475Y0288136D01*
X0284475Y0287940D02*
X0278077Y0287940D01*
X0278077Y0287745D02*
X0284475Y0287745D01*
X0284475Y0287550D02*
X0278077Y0287550D01*
X0278077Y0285874D02*
X0284475Y0285874D01*
X0284475Y0284890D01*
X0278077Y0284890D01*
X0278077Y0285874D01*
X0278077Y0285791D02*
X0284475Y0285791D01*
X0284475Y0285596D02*
X0278077Y0285596D01*
X0278077Y0285401D02*
X0284475Y0285401D01*
X0284475Y0285205D02*
X0278077Y0285205D01*
X0278077Y0285010D02*
X0284475Y0285010D01*
D18*
X0348904Y0259500D03*
X0355596Y0259500D03*
X0341096Y0238400D03*
X0334404Y0238400D03*
X0363904Y0224500D03*
X0370596Y0224500D03*
X0434004Y0223750D03*
X0434004Y0229750D03*
X0440696Y0229750D03*
X0440696Y0223750D03*
X0440696Y0217750D03*
X0434004Y0217750D03*
X0434004Y0235750D03*
X0440696Y0235750D03*
X0355596Y0097500D03*
X0348904Y0097500D03*
X0341096Y0076400D03*
X0334404Y0076400D03*
X0363904Y0062500D03*
X0370596Y0062500D03*
X0434004Y0061750D03*
X0434004Y0067750D03*
X0440696Y0067750D03*
X0440696Y0061750D03*
X0440696Y0055750D03*
X0434004Y0055750D03*
X0434004Y0073750D03*
X0440696Y0073750D03*
X0218696Y0073750D03*
X0212004Y0073750D03*
X0212004Y0067750D03*
X0212004Y0061750D03*
X0218696Y0061750D03*
X0218696Y0067750D03*
X0218696Y0055750D03*
X0212004Y0055750D03*
X0148596Y0062500D03*
X0141904Y0062500D03*
X0119096Y0076400D03*
X0112404Y0076400D03*
X0126904Y0097500D03*
X0133596Y0097500D03*
X0212004Y0217750D03*
X0218696Y0217750D03*
X0218696Y0223750D03*
X0218696Y0229750D03*
X0212004Y0229750D03*
X0212004Y0223750D03*
X0212004Y0235750D03*
X0218696Y0235750D03*
X0148596Y0224500D03*
X0141904Y0224500D03*
X0119096Y0238400D03*
X0112404Y0238400D03*
X0126904Y0259500D03*
X0133596Y0259500D03*
D19*
X0077608Y0208490D03*
X0071703Y0208490D03*
X0059892Y0208490D03*
X0281892Y0208490D03*
X0293703Y0208490D03*
X0299608Y0208490D03*
X0299608Y0046490D03*
X0293703Y0046490D03*
X0281892Y0046490D03*
X0077608Y0046490D03*
X0071703Y0046490D03*
X0059892Y0046490D03*
D20*
X0054380Y0035663D03*
X0083120Y0035663D03*
X0276380Y0035663D03*
X0305120Y0035663D03*
X0305120Y0197663D03*
X0276380Y0197663D03*
X0083120Y0197663D03*
X0054380Y0197663D03*
D21*
X0054380Y0205931D03*
X0083120Y0205931D03*
X0276380Y0205931D03*
X0305120Y0205931D03*
X0305120Y0043931D03*
X0276380Y0043931D03*
X0083120Y0043931D03*
X0054380Y0043931D03*
D22*
X0104510Y0140881D03*
X0111990Y0140881D03*
X0111990Y0151119D03*
X0108250Y0151119D03*
X0104510Y0151119D03*
X0326510Y0151119D03*
X0330250Y0151119D03*
X0333990Y0151119D03*
X0333990Y0140881D03*
X0326510Y0140881D03*
X0326510Y0302881D03*
X0333990Y0302881D03*
X0333990Y0313119D03*
X0330250Y0313119D03*
X0326510Y0313119D03*
X0111990Y0313119D03*
X0108250Y0313119D03*
X0104510Y0313119D03*
X0104510Y0302881D03*
X0111990Y0302881D03*
D23*
X0076427Y0339500D03*
X0061073Y0339500D03*
X0283073Y0339500D03*
X0298427Y0339500D03*
X0298427Y0177500D03*
X0283073Y0177500D03*
X0076427Y0177500D03*
X0061073Y0177500D03*
D24*
X0104726Y0216400D03*
X0104726Y0221400D03*
X0104726Y0226400D03*
X0104726Y0231400D03*
X0126774Y0231400D03*
X0126774Y0226400D03*
X0126774Y0221400D03*
X0126774Y0216400D03*
X0326726Y0216400D03*
X0326726Y0221400D03*
X0326726Y0226400D03*
X0326726Y0231400D03*
X0348774Y0231400D03*
X0348774Y0226400D03*
X0348774Y0221400D03*
X0348774Y0216400D03*
X0348774Y0069400D03*
X0348774Y0064400D03*
X0348774Y0059400D03*
X0348774Y0054400D03*
X0326726Y0054400D03*
X0326726Y0059400D03*
X0326726Y0064400D03*
X0326726Y0069400D03*
X0126774Y0069400D03*
X0126774Y0064400D03*
X0126774Y0059400D03*
X0126774Y0054400D03*
X0104726Y0054400D03*
X0104726Y0059400D03*
X0104726Y0064400D03*
X0104726Y0069400D03*
D25*
X0178079Y0100000D03*
X0187921Y0100000D03*
X0400079Y0100000D03*
X0409921Y0100000D03*
X0409921Y0262000D03*
X0400079Y0262000D03*
X0187921Y0262000D03*
X0178079Y0262000D03*
D26*
X0238750Y0307587D03*
X0238750Y0318413D03*
X0460750Y0318413D03*
X0460750Y0307587D03*
X0460750Y0156413D03*
X0460750Y0145587D03*
X0238750Y0145587D03*
X0238750Y0156413D03*
D27*
X0232746Y0151000D03*
X0244754Y0151000D03*
X0454746Y0151000D03*
X0466754Y0151000D03*
X0466754Y0313000D03*
X0454746Y0313000D03*
X0244754Y0313000D03*
X0232746Y0313000D03*
D28*
X0184077Y0251886D03*
X0182108Y0251886D03*
X0180140Y0251886D03*
X0178171Y0251886D03*
X0176203Y0251886D03*
X0174234Y0251886D03*
X0172266Y0251886D03*
X0170297Y0251886D03*
X0168329Y0251886D03*
X0166360Y0251886D03*
X0164392Y0251886D03*
X0162423Y0251886D03*
X0162423Y0225114D03*
X0164392Y0225114D03*
X0166360Y0225114D03*
X0168329Y0225114D03*
X0170297Y0225114D03*
X0172266Y0225114D03*
X0174234Y0225114D03*
X0176203Y0225114D03*
X0178171Y0225114D03*
X0180140Y0225114D03*
X0182108Y0225114D03*
X0184077Y0225114D03*
X0384423Y0225114D03*
X0386392Y0225114D03*
X0388360Y0225114D03*
X0390329Y0225114D03*
X0392297Y0225114D03*
X0394266Y0225114D03*
X0396234Y0225114D03*
X0398203Y0225114D03*
X0400171Y0225114D03*
X0402140Y0225114D03*
X0404108Y0225114D03*
X0406077Y0225114D03*
X0406077Y0251886D03*
X0404108Y0251886D03*
X0402140Y0251886D03*
X0400171Y0251886D03*
X0398203Y0251886D03*
X0396234Y0251886D03*
X0394266Y0251886D03*
X0392297Y0251886D03*
X0390329Y0251886D03*
X0388360Y0251886D03*
X0386392Y0251886D03*
X0384423Y0251886D03*
X0384423Y0089886D03*
X0386392Y0089886D03*
X0388360Y0089886D03*
X0390329Y0089886D03*
X0392297Y0089886D03*
X0394266Y0089886D03*
X0396234Y0089886D03*
X0398203Y0089886D03*
X0400171Y0089886D03*
X0402140Y0089886D03*
X0404108Y0089886D03*
X0406077Y0089886D03*
X0406077Y0063114D03*
X0404108Y0063114D03*
X0402140Y0063114D03*
X0400171Y0063114D03*
X0398203Y0063114D03*
X0396234Y0063114D03*
X0394266Y0063114D03*
X0392297Y0063114D03*
X0390329Y0063114D03*
X0388360Y0063114D03*
X0386392Y0063114D03*
X0384423Y0063114D03*
X0184077Y0063114D03*
X0182108Y0063114D03*
X0180140Y0063114D03*
X0178171Y0063114D03*
X0176203Y0063114D03*
X0174234Y0063114D03*
X0172266Y0063114D03*
X0170297Y0063114D03*
X0168329Y0063114D03*
X0166360Y0063114D03*
X0164392Y0063114D03*
X0162423Y0063114D03*
X0162423Y0089886D03*
X0164392Y0089886D03*
X0166360Y0089886D03*
X0168329Y0089886D03*
X0170297Y0089886D03*
X0172266Y0089886D03*
X0174234Y0089886D03*
X0176203Y0089886D03*
X0178171Y0089886D03*
X0180140Y0089886D03*
X0182108Y0089886D03*
X0184077Y0089886D03*
D29*
X0186636Y0087327D03*
X0186636Y0085358D03*
X0186636Y0083390D03*
X0186636Y0081421D03*
X0186636Y0079453D03*
X0186636Y0077484D03*
X0186636Y0075516D03*
X0186636Y0073547D03*
X0186636Y0071579D03*
X0186636Y0069610D03*
X0186636Y0067642D03*
X0186636Y0065673D03*
X0159864Y0065673D03*
X0159864Y0067642D03*
X0159864Y0069610D03*
X0159864Y0071579D03*
X0159864Y0073547D03*
X0159864Y0075516D03*
X0159864Y0077484D03*
X0159864Y0079453D03*
X0159864Y0081421D03*
X0159864Y0083390D03*
X0159864Y0085358D03*
X0159864Y0087327D03*
X0159864Y0227673D03*
X0159864Y0229642D03*
X0159864Y0231610D03*
X0159864Y0233579D03*
X0159864Y0235547D03*
X0159864Y0237516D03*
X0159864Y0239484D03*
X0159864Y0241453D03*
X0159864Y0243421D03*
X0159864Y0245390D03*
X0159864Y0247358D03*
X0159864Y0249327D03*
X0186636Y0249327D03*
X0186636Y0247358D03*
X0186636Y0245390D03*
X0186636Y0243421D03*
X0186636Y0241453D03*
X0186636Y0239484D03*
X0186636Y0237516D03*
X0186636Y0235547D03*
X0186636Y0233579D03*
X0186636Y0231610D03*
X0186636Y0229642D03*
X0186636Y0227673D03*
X0381864Y0227673D03*
X0381864Y0229642D03*
X0381864Y0231610D03*
X0381864Y0233579D03*
X0381864Y0235547D03*
X0381864Y0237516D03*
X0381864Y0239484D03*
X0381864Y0241453D03*
X0381864Y0243421D03*
X0381864Y0245390D03*
X0381864Y0247358D03*
X0381864Y0249327D03*
X0408636Y0249327D03*
X0408636Y0247358D03*
X0408636Y0245390D03*
X0408636Y0243421D03*
X0408636Y0241453D03*
X0408636Y0239484D03*
X0408636Y0237516D03*
X0408636Y0235547D03*
X0408636Y0233579D03*
X0408636Y0231610D03*
X0408636Y0229642D03*
X0408636Y0227673D03*
X0408636Y0087327D03*
X0408636Y0085358D03*
X0408636Y0083390D03*
X0408636Y0081421D03*
X0408636Y0079453D03*
X0408636Y0077484D03*
X0408636Y0075516D03*
X0408636Y0073547D03*
X0408636Y0071579D03*
X0408636Y0069610D03*
X0408636Y0067642D03*
X0408636Y0065673D03*
X0381864Y0065673D03*
X0381864Y0067642D03*
X0381864Y0069610D03*
X0381864Y0071579D03*
X0381864Y0073547D03*
X0381864Y0075516D03*
X0381864Y0077484D03*
X0381864Y0079453D03*
X0381864Y0081421D03*
X0381864Y0083390D03*
X0381864Y0085358D03*
X0381864Y0087327D03*
D30*
X0313850Y0128800D03*
X0304750Y0128800D03*
X0295650Y0128800D03*
X0091850Y0128800D03*
X0082750Y0128800D03*
X0073650Y0128800D03*
X0073650Y0290800D03*
X0082750Y0290800D03*
X0091850Y0290800D03*
X0295650Y0290800D03*
X0304750Y0290800D03*
X0313850Y0290800D03*
D31*
X0304750Y0315201D03*
X0082750Y0315201D03*
X0082750Y0153201D03*
X0304750Y0153201D03*
D32*
X0362707Y0145000D03*
X0369793Y0145000D03*
X0147793Y0145000D03*
X0140707Y0145000D03*
X0140707Y0307000D03*
X0147793Y0307000D03*
X0362707Y0307000D03*
X0369793Y0307000D03*
D33*
X0343837Y0266543D03*
X0342262Y0266543D03*
X0340687Y0266543D03*
X0339112Y0266543D03*
X0337537Y0266543D03*
X0335963Y0266543D03*
X0334388Y0266543D03*
X0332813Y0266543D03*
X0331238Y0266543D03*
X0329663Y0266543D03*
X0331238Y0259457D03*
X0332813Y0259457D03*
X0334388Y0259457D03*
X0335963Y0259457D03*
X0337537Y0259457D03*
X0339112Y0259457D03*
X0340687Y0259457D03*
X0342262Y0259457D03*
X0343837Y0259457D03*
X0121837Y0259457D03*
X0120262Y0259457D03*
X0118687Y0259457D03*
X0117112Y0259457D03*
X0115537Y0259457D03*
X0113963Y0259457D03*
X0112388Y0259457D03*
X0110813Y0259457D03*
X0109238Y0259457D03*
X0109238Y0266543D03*
X0107663Y0266543D03*
X0110813Y0266543D03*
X0112388Y0266543D03*
X0113963Y0266543D03*
X0115537Y0266543D03*
X0117112Y0266543D03*
X0118687Y0266543D03*
X0120262Y0266543D03*
X0121837Y0266543D03*
X0121837Y0104543D03*
X0120262Y0104543D03*
X0118687Y0104543D03*
X0117112Y0104543D03*
X0115537Y0104543D03*
X0113963Y0104543D03*
X0112388Y0104543D03*
X0110813Y0104543D03*
X0109238Y0104543D03*
X0107663Y0104543D03*
X0109238Y0097457D03*
X0110813Y0097457D03*
X0112388Y0097457D03*
X0113963Y0097457D03*
X0115537Y0097457D03*
X0117112Y0097457D03*
X0118687Y0097457D03*
X0120262Y0097457D03*
X0121837Y0097457D03*
X0329663Y0104543D03*
X0331238Y0104543D03*
X0332813Y0104543D03*
X0334388Y0104543D03*
X0335963Y0104543D03*
X0337537Y0104543D03*
X0339112Y0104543D03*
X0340687Y0104543D03*
X0342262Y0104543D03*
X0343837Y0104543D03*
X0343837Y0097457D03*
X0342262Y0097457D03*
X0340687Y0097457D03*
X0339112Y0097457D03*
X0337537Y0097457D03*
X0335963Y0097457D03*
X0334388Y0097457D03*
X0332813Y0097457D03*
X0331238Y0097457D03*
D34*
X0329663Y0097654D03*
X0107663Y0097654D03*
X0107663Y0259654D03*
X0329663Y0259654D03*
D35*
X0239774Y0196031D03*
X0239774Y0182969D03*
X0217726Y0182969D03*
X0217726Y0196031D03*
X0439726Y0196031D03*
X0439726Y0182969D03*
X0461774Y0182969D03*
X0461774Y0196031D03*
X0461774Y0344969D03*
X0439726Y0344969D03*
X0239774Y0344969D03*
X0217726Y0344969D03*
X0217726Y0034031D03*
X0239774Y0034031D03*
X0439726Y0034031D03*
X0461774Y0034031D03*
D36*
X0456656Y0048500D03*
X0452719Y0048500D03*
X0448781Y0048500D03*
X0444844Y0048500D03*
X0444844Y0168500D03*
X0448781Y0168500D03*
X0452719Y0168500D03*
X0456656Y0168500D03*
X0456656Y0210500D03*
X0452719Y0210500D03*
X0448781Y0210500D03*
X0444844Y0210500D03*
X0444844Y0330500D03*
X0448781Y0330500D03*
X0452719Y0330500D03*
X0456656Y0330500D03*
X0234656Y0330500D03*
X0230719Y0330500D03*
X0226781Y0330500D03*
X0222844Y0330500D03*
X0222844Y0210500D03*
X0226781Y0210500D03*
X0230719Y0210500D03*
X0234656Y0210500D03*
X0234656Y0168500D03*
X0230719Y0168500D03*
X0226781Y0168500D03*
X0222844Y0168500D03*
X0222844Y0048500D03*
X0226781Y0048500D03*
X0230719Y0048500D03*
X0234656Y0048500D03*
D37*
X0149369Y0131260D03*
X0149369Y0138740D03*
X0139131Y0138740D03*
X0139131Y0135000D03*
X0139131Y0131260D03*
X0361131Y0131260D03*
X0361131Y0135000D03*
X0361131Y0138740D03*
X0371369Y0138740D03*
X0371369Y0131260D03*
X0371369Y0293260D03*
X0371369Y0300740D03*
X0361131Y0300740D03*
X0361131Y0297000D03*
X0361131Y0293260D03*
X0149369Y0293260D03*
X0149369Y0300740D03*
X0139131Y0300740D03*
X0139131Y0297000D03*
X0139131Y0293260D03*
D38*
X0081766Y0264941D03*
X0057750Y0264941D03*
X0057750Y0220059D03*
X0081766Y0220059D03*
X0081766Y0102941D03*
X0057750Y0102941D03*
X0057750Y0058059D03*
X0081766Y0058059D03*
X0279750Y0058059D03*
X0303766Y0058059D03*
X0303766Y0102941D03*
X0279750Y0102941D03*
X0279750Y0220059D03*
X0303766Y0220059D03*
X0303766Y0264941D03*
X0279750Y0264941D03*
D39*
X0349691Y0264358D03*
X0354809Y0264358D03*
X0352250Y0271642D03*
X0132809Y0264358D03*
X0127691Y0264358D03*
X0130250Y0271642D03*
X0130250Y0109642D03*
X0127691Y0102358D03*
X0132809Y0102358D03*
X0349691Y0102358D03*
X0354809Y0102358D03*
X0352250Y0109642D03*
D40*
X0345250Y0139972D03*
X0339250Y0139972D03*
X0339250Y0149028D03*
X0345250Y0149028D03*
X0123250Y0149028D03*
X0117250Y0149028D03*
X0117250Y0139972D03*
X0123250Y0139972D03*
X0123250Y0301972D03*
X0117250Y0301972D03*
X0117250Y0311028D03*
X0123250Y0311028D03*
X0339250Y0311028D03*
X0345250Y0311028D03*
X0345250Y0301972D03*
X0339250Y0301972D03*
M02*
