G75*
%MOIN*%
%OFA0B0*%
%FSLAX25Y25*%
%IPPOS*%
%LPD*%
%AMOC8*
5,1,8,0,0,1.08239X$1,22.5*
%
%ADD10R,0.05906X0.13386*%
%ADD11R,0.13386X0.05906*%
%ADD12R,0.10040X0.05906*%
D10*
X0057530Y0084580D03*
X0067530Y0084580D03*
X0077530Y0084580D03*
X0087530Y0084580D03*
X0097530Y0084580D03*
X0107530Y0084580D03*
X0117530Y0084580D03*
X0127530Y0084580D03*
X0137530Y0084580D03*
X0279530Y0084580D03*
X0289530Y0084580D03*
X0299530Y0084580D03*
X0309530Y0084580D03*
X0319530Y0084580D03*
X0329530Y0084580D03*
X0339530Y0084580D03*
X0349530Y0084580D03*
X0359530Y0084580D03*
X0359530Y0183005D03*
X0349530Y0183005D03*
X0339530Y0183005D03*
X0329530Y0183005D03*
X0319530Y0182926D03*
X0309530Y0183005D03*
X0299530Y0183005D03*
X0289530Y0183005D03*
X0279530Y0183005D03*
X0279530Y0246580D03*
X0289530Y0246580D03*
X0299530Y0246580D03*
X0309530Y0246580D03*
X0319530Y0246580D03*
X0329530Y0246580D03*
X0339530Y0246580D03*
X0349530Y0246580D03*
X0359530Y0246580D03*
X0359530Y0345005D03*
X0349530Y0345005D03*
X0339530Y0345005D03*
X0329530Y0345005D03*
X0319530Y0344926D03*
X0309530Y0345005D03*
X0299530Y0345005D03*
X0289530Y0345005D03*
X0279530Y0345005D03*
X0137530Y0345005D03*
X0127530Y0345005D03*
X0117530Y0345005D03*
X0107530Y0345005D03*
X0097530Y0344926D03*
X0087530Y0345005D03*
X0077530Y0345005D03*
X0067530Y0345005D03*
X0057530Y0345005D03*
X0057530Y0246580D03*
X0067530Y0246580D03*
X0077530Y0246580D03*
X0087530Y0246580D03*
X0097530Y0246580D03*
X0107530Y0246580D03*
X0117530Y0246580D03*
X0127530Y0246580D03*
X0137530Y0246580D03*
X0137530Y0183005D03*
X0127530Y0183005D03*
X0117530Y0183005D03*
X0107530Y0183005D03*
X0097530Y0182926D03*
X0087530Y0183005D03*
X0077530Y0183005D03*
X0067530Y0183005D03*
X0057530Y0183005D03*
D11*
X0201230Y0151352D03*
X0201230Y0116234D03*
X0201230Y0106234D03*
X0423230Y0106234D03*
X0423230Y0116234D03*
X0423230Y0151352D03*
X0423230Y0268234D03*
X0423230Y0278234D03*
X0423230Y0313352D03*
X0201230Y0313352D03*
X0201230Y0278234D03*
X0201230Y0268234D03*
D12*
X0199530Y0323352D03*
X0421530Y0323352D03*
X0421530Y0161352D03*
X0199530Y0161352D03*
M02*
