G75*
%MOIN*%
%OFA0B0*%
%FSLAX25Y25*%
%IPPOS*%
%LPD*%
%AMOC8*
5,1,8,0,0,1.08239X$1,22.5*
%
%ADD10C,0.07493*%
%ADD11C,0.00600*%
%ADD12C,0.04343*%
%ADD13C,0.08200*%
%ADD14C,0.03556*%
%ADD15C,0.04737*%
%ADD16R,0.06706X0.14186*%
%ADD17R,0.14186X0.06706*%
%ADD18R,0.10840X0.06706*%
%ADD19R,0.03300X0.05800*%
%ADD20C,0.08800*%
%ADD21C,0.05000*%
%ADD22C,0.06706*%
D10*
X0208750Y0183500D03*
X0430750Y0183500D03*
X0430750Y0345500D03*
X0208750Y0345500D03*
D11*
X0210750Y0300500D02*
X0194750Y0300500D01*
X0194750Y0294000D01*
X0204250Y0294000D01*
X0210750Y0300500D01*
X0210474Y0300224D02*
X0194750Y0300224D01*
X0194750Y0299626D02*
X0209876Y0299626D01*
X0209277Y0299027D02*
X0194750Y0299027D01*
X0194750Y0298429D02*
X0208679Y0298429D01*
X0208080Y0297830D02*
X0194750Y0297830D01*
X0194750Y0297232D02*
X0207482Y0297232D01*
X0206883Y0296633D02*
X0194750Y0296633D01*
X0194750Y0296035D02*
X0206285Y0296035D01*
X0205686Y0295436D02*
X0194750Y0295436D01*
X0194750Y0294838D02*
X0205088Y0294838D01*
X0204489Y0294239D02*
X0194750Y0294239D01*
X0416750Y0294239D02*
X0426489Y0294239D01*
X0426250Y0294000D02*
X0416750Y0294000D01*
X0416750Y0300500D01*
X0432750Y0300500D01*
X0426250Y0294000D01*
X0427088Y0294838D02*
X0416750Y0294838D01*
X0416750Y0295436D02*
X0427686Y0295436D01*
X0428285Y0296035D02*
X0416750Y0296035D01*
X0416750Y0296633D02*
X0428883Y0296633D01*
X0429482Y0297232D02*
X0416750Y0297232D01*
X0416750Y0297830D02*
X0430080Y0297830D01*
X0430679Y0298429D02*
X0416750Y0298429D01*
X0416750Y0299027D02*
X0431277Y0299027D01*
X0431876Y0299626D02*
X0416750Y0299626D01*
X0416750Y0300224D02*
X0432474Y0300224D01*
X0432750Y0138500D02*
X0416750Y0138500D01*
X0416750Y0132000D01*
X0426250Y0132000D01*
X0432750Y0138500D01*
X0432278Y0138028D02*
X0416750Y0138028D01*
X0416750Y0137429D02*
X0431679Y0137429D01*
X0431081Y0136831D02*
X0416750Y0136831D01*
X0416750Y0136232D02*
X0430482Y0136232D01*
X0429884Y0135634D02*
X0416750Y0135634D01*
X0416750Y0135035D02*
X0429285Y0135035D01*
X0428687Y0134437D02*
X0416750Y0134437D01*
X0416750Y0133838D02*
X0428088Y0133838D01*
X0427489Y0133239D02*
X0416750Y0133239D01*
X0416750Y0132641D02*
X0426891Y0132641D01*
X0426292Y0132042D02*
X0416750Y0132042D01*
X0210750Y0138500D02*
X0204250Y0132000D01*
X0194750Y0132000D01*
X0194750Y0138500D01*
X0210750Y0138500D01*
X0210278Y0138028D02*
X0194750Y0138028D01*
X0194750Y0137429D02*
X0209679Y0137429D01*
X0209081Y0136831D02*
X0194750Y0136831D01*
X0194750Y0136232D02*
X0208482Y0136232D01*
X0207884Y0135634D02*
X0194750Y0135634D01*
X0194750Y0135035D02*
X0207285Y0135035D01*
X0206687Y0134437D02*
X0194750Y0134437D01*
X0194750Y0133838D02*
X0206088Y0133838D01*
X0205489Y0133239D02*
X0194750Y0133239D01*
X0194750Y0132641D02*
X0204891Y0132641D01*
X0204292Y0132042D02*
X0194750Y0132042D01*
D12*
X0062844Y0039600D03*
X0074656Y0039600D03*
X0284844Y0039600D03*
X0296656Y0039600D03*
X0296656Y0201600D03*
X0284844Y0201600D03*
X0074656Y0201600D03*
X0062844Y0201600D03*
D13*
X0043750Y0205500D03*
X0043750Y0215500D03*
X0098750Y0205500D03*
X0108750Y0205500D03*
X0118750Y0205500D03*
X0128750Y0205500D03*
X0138750Y0205500D03*
X0148750Y0205500D03*
X0158750Y0205500D03*
X0168750Y0205500D03*
X0178750Y0205500D03*
X0188750Y0205500D03*
X0198750Y0205500D03*
X0198750Y0195500D03*
X0188750Y0195500D03*
X0178750Y0195500D03*
X0168750Y0195500D03*
X0158750Y0195500D03*
X0148750Y0195500D03*
X0138750Y0195500D03*
X0128750Y0195500D03*
X0118750Y0195500D03*
X0108750Y0195500D03*
X0098750Y0195500D03*
X0108750Y0183500D03*
X0118750Y0183500D03*
X0128750Y0183500D03*
X0138750Y0183500D03*
X0148750Y0183500D03*
X0158750Y0183500D03*
X0168750Y0183500D03*
X0178750Y0183500D03*
X0188750Y0183500D03*
X0198750Y0183500D03*
X0198750Y0173500D03*
X0208750Y0173500D03*
X0188750Y0173500D03*
X0178750Y0173500D03*
X0168750Y0173500D03*
X0158750Y0173500D03*
X0148750Y0173500D03*
X0138750Y0173500D03*
X0128750Y0173500D03*
X0118750Y0173500D03*
X0108750Y0173500D03*
X0265750Y0205500D03*
X0265750Y0215500D03*
X0320750Y0205500D03*
X0330750Y0205500D03*
X0340750Y0205500D03*
X0350750Y0205500D03*
X0360750Y0205500D03*
X0370750Y0205500D03*
X0380750Y0205500D03*
X0390750Y0205500D03*
X0400750Y0205500D03*
X0410750Y0205500D03*
X0420750Y0205500D03*
X0420750Y0195500D03*
X0410750Y0195500D03*
X0400750Y0195500D03*
X0390750Y0195500D03*
X0380750Y0195500D03*
X0370750Y0195500D03*
X0360750Y0195500D03*
X0350750Y0195500D03*
X0340750Y0195500D03*
X0330750Y0195500D03*
X0320750Y0195500D03*
X0330750Y0183500D03*
X0340750Y0183500D03*
X0350750Y0183500D03*
X0360750Y0183500D03*
X0370750Y0183500D03*
X0380750Y0183500D03*
X0390750Y0183500D03*
X0400750Y0183500D03*
X0410750Y0183500D03*
X0420750Y0183500D03*
X0420750Y0173500D03*
X0430750Y0173500D03*
X0410750Y0173500D03*
X0400750Y0173500D03*
X0390750Y0173500D03*
X0380750Y0173500D03*
X0370750Y0173500D03*
X0360750Y0173500D03*
X0350750Y0173500D03*
X0340750Y0173500D03*
X0330750Y0173500D03*
X0265750Y0053500D03*
X0265750Y0043500D03*
X0320750Y0043500D03*
X0330750Y0043500D03*
X0340750Y0043500D03*
X0350750Y0043500D03*
X0360750Y0043500D03*
X0370750Y0043500D03*
X0380750Y0043500D03*
X0390750Y0043500D03*
X0400750Y0043500D03*
X0410750Y0043500D03*
X0420750Y0043500D03*
X0420750Y0033500D03*
X0410750Y0033500D03*
X0400750Y0033500D03*
X0390750Y0033500D03*
X0380750Y0033500D03*
X0370750Y0033500D03*
X0360750Y0033500D03*
X0350750Y0033500D03*
X0340750Y0033500D03*
X0330750Y0033500D03*
X0320750Y0033500D03*
X0198750Y0033500D03*
X0188750Y0033500D03*
X0178750Y0033500D03*
X0168750Y0033500D03*
X0158750Y0033500D03*
X0148750Y0033500D03*
X0138750Y0033500D03*
X0128750Y0033500D03*
X0118750Y0033500D03*
X0108750Y0033500D03*
X0098750Y0033500D03*
X0098750Y0043500D03*
X0108750Y0043500D03*
X0118750Y0043500D03*
X0128750Y0043500D03*
X0138750Y0043500D03*
X0148750Y0043500D03*
X0158750Y0043500D03*
X0168750Y0043500D03*
X0178750Y0043500D03*
X0188750Y0043500D03*
X0198750Y0043500D03*
X0043750Y0043500D03*
X0043750Y0053500D03*
X0108750Y0335500D03*
X0118750Y0335500D03*
X0128750Y0335500D03*
X0138750Y0335500D03*
X0148750Y0335500D03*
X0158750Y0335500D03*
X0168750Y0335500D03*
X0178750Y0335500D03*
X0188750Y0335500D03*
X0198750Y0335500D03*
X0208750Y0335500D03*
X0198750Y0345500D03*
X0188750Y0345500D03*
X0178750Y0345500D03*
X0168750Y0345500D03*
X0158750Y0345500D03*
X0148750Y0345500D03*
X0138750Y0345500D03*
X0128750Y0345500D03*
X0118750Y0345500D03*
X0108750Y0345500D03*
X0330750Y0345500D03*
X0340750Y0345500D03*
X0350750Y0345500D03*
X0360750Y0345500D03*
X0370750Y0345500D03*
X0380750Y0345500D03*
X0390750Y0345500D03*
X0400750Y0345500D03*
X0410750Y0345500D03*
X0420750Y0345500D03*
X0420750Y0335500D03*
X0430750Y0335500D03*
X0410750Y0335500D03*
X0400750Y0335500D03*
X0390750Y0335500D03*
X0380750Y0335500D03*
X0370750Y0335500D03*
X0360750Y0335500D03*
X0350750Y0335500D03*
X0340750Y0335500D03*
X0330750Y0335500D03*
D14*
X0290750Y0335957D03*
X0290750Y0343043D03*
X0068750Y0343043D03*
X0068750Y0335957D03*
X0068750Y0181043D03*
X0068750Y0173957D03*
X0290750Y0173957D03*
X0290750Y0181043D03*
D15*
X0290750Y0201500D03*
X0243750Y0173500D03*
X0068750Y0201500D03*
X0243750Y0335500D03*
X0075750Y0358750D03*
X0433750Y0358750D03*
X0465750Y0335500D03*
X0465750Y0173500D03*
X0290750Y0039500D03*
X0068750Y0039500D03*
D16*
X0067530Y0058500D03*
X0077530Y0058500D03*
X0087530Y0058500D03*
X0097530Y0058500D03*
X0107530Y0058500D03*
X0117530Y0058500D03*
X0127530Y0058500D03*
X0137530Y0058500D03*
X0057530Y0058500D03*
X0057530Y0156925D03*
X0067530Y0156925D03*
X0077530Y0156925D03*
X0087530Y0156925D03*
X0097530Y0156846D03*
X0107530Y0156925D03*
X0117530Y0156925D03*
X0127530Y0156925D03*
X0137530Y0156925D03*
X0137530Y0220500D03*
X0127530Y0220500D03*
X0117530Y0220500D03*
X0107530Y0220500D03*
X0097530Y0220500D03*
X0087530Y0220500D03*
X0077530Y0220500D03*
X0067530Y0220500D03*
X0057530Y0220500D03*
X0057530Y0318925D03*
X0067530Y0318925D03*
X0077530Y0318925D03*
X0087530Y0318925D03*
X0097530Y0318846D03*
X0107530Y0318925D03*
X0117530Y0318925D03*
X0127530Y0318925D03*
X0137530Y0318925D03*
X0279530Y0318925D03*
X0289530Y0318925D03*
X0299530Y0318925D03*
X0309530Y0318925D03*
X0319530Y0318846D03*
X0329530Y0318925D03*
X0339530Y0318925D03*
X0349530Y0318925D03*
X0359530Y0318925D03*
X0359530Y0220500D03*
X0349530Y0220500D03*
X0339530Y0220500D03*
X0329530Y0220500D03*
X0319530Y0220500D03*
X0309530Y0220500D03*
X0299530Y0220500D03*
X0289530Y0220500D03*
X0279530Y0220500D03*
X0279530Y0156925D03*
X0289530Y0156925D03*
X0299530Y0156925D03*
X0309530Y0156925D03*
X0319530Y0156846D03*
X0329530Y0156925D03*
X0339530Y0156925D03*
X0349530Y0156925D03*
X0359530Y0156925D03*
X0359530Y0058500D03*
X0349530Y0058500D03*
X0339530Y0058500D03*
X0329530Y0058500D03*
X0319530Y0058500D03*
X0309530Y0058500D03*
X0299530Y0058500D03*
X0289530Y0058500D03*
X0279530Y0058500D03*
D17*
X0201230Y0080154D03*
X0201230Y0090154D03*
X0201230Y0125272D03*
X0201230Y0242154D03*
X0201230Y0252154D03*
X0201230Y0287272D03*
X0423230Y0287272D03*
X0423230Y0252154D03*
X0423230Y0242154D03*
X0423230Y0125272D03*
X0423230Y0090154D03*
X0423230Y0080154D03*
D18*
X0421530Y0135272D03*
X0199530Y0135272D03*
X0199530Y0297272D03*
X0421530Y0297272D03*
D19*
X0373850Y0323000D03*
X0370650Y0323000D03*
X0151850Y0323000D03*
X0148650Y0323000D03*
X0148650Y0161000D03*
X0151850Y0161000D03*
X0370650Y0161000D03*
X0373850Y0161000D03*
D20*
X0297750Y0080500D03*
X0279750Y0080500D03*
X0075750Y0080500D03*
X0057750Y0080500D03*
X0057750Y0242500D03*
X0075750Y0242500D03*
X0279750Y0242500D03*
X0297750Y0242500D03*
D21*
X0072185Y0020250D02*
X0072187Y0020369D01*
X0072193Y0020488D01*
X0072203Y0020607D01*
X0072217Y0020725D01*
X0072235Y0020843D01*
X0072256Y0020960D01*
X0072282Y0021076D01*
X0072312Y0021192D01*
X0072345Y0021306D01*
X0072382Y0021419D01*
X0072423Y0021531D01*
X0072468Y0021642D01*
X0072516Y0021751D01*
X0072568Y0021858D01*
X0072624Y0021963D01*
X0072683Y0022067D01*
X0072745Y0022168D01*
X0072811Y0022268D01*
X0072880Y0022365D01*
X0072952Y0022459D01*
X0073028Y0022552D01*
X0073106Y0022641D01*
X0073187Y0022728D01*
X0073272Y0022813D01*
X0073359Y0022894D01*
X0073448Y0022972D01*
X0073541Y0023048D01*
X0073635Y0023120D01*
X0073732Y0023189D01*
X0073832Y0023255D01*
X0073933Y0023317D01*
X0074037Y0023376D01*
X0074142Y0023432D01*
X0074249Y0023484D01*
X0074358Y0023532D01*
X0074469Y0023577D01*
X0074581Y0023618D01*
X0074694Y0023655D01*
X0074808Y0023688D01*
X0074924Y0023718D01*
X0075040Y0023744D01*
X0075157Y0023765D01*
X0075275Y0023783D01*
X0075393Y0023797D01*
X0075512Y0023807D01*
X0075631Y0023813D01*
X0075750Y0023815D01*
X0075869Y0023813D01*
X0075988Y0023807D01*
X0076107Y0023797D01*
X0076225Y0023783D01*
X0076343Y0023765D01*
X0076460Y0023744D01*
X0076576Y0023718D01*
X0076692Y0023688D01*
X0076806Y0023655D01*
X0076919Y0023618D01*
X0077031Y0023577D01*
X0077142Y0023532D01*
X0077251Y0023484D01*
X0077358Y0023432D01*
X0077463Y0023376D01*
X0077567Y0023317D01*
X0077668Y0023255D01*
X0077768Y0023189D01*
X0077865Y0023120D01*
X0077959Y0023048D01*
X0078052Y0022972D01*
X0078141Y0022894D01*
X0078228Y0022813D01*
X0078313Y0022728D01*
X0078394Y0022641D01*
X0078472Y0022552D01*
X0078548Y0022459D01*
X0078620Y0022365D01*
X0078689Y0022268D01*
X0078755Y0022168D01*
X0078817Y0022067D01*
X0078876Y0021963D01*
X0078932Y0021858D01*
X0078984Y0021751D01*
X0079032Y0021642D01*
X0079077Y0021531D01*
X0079118Y0021419D01*
X0079155Y0021306D01*
X0079188Y0021192D01*
X0079218Y0021076D01*
X0079244Y0020960D01*
X0079265Y0020843D01*
X0079283Y0020725D01*
X0079297Y0020607D01*
X0079307Y0020488D01*
X0079313Y0020369D01*
X0079315Y0020250D01*
X0079313Y0020131D01*
X0079307Y0020012D01*
X0079297Y0019893D01*
X0079283Y0019775D01*
X0079265Y0019657D01*
X0079244Y0019540D01*
X0079218Y0019424D01*
X0079188Y0019308D01*
X0079155Y0019194D01*
X0079118Y0019081D01*
X0079077Y0018969D01*
X0079032Y0018858D01*
X0078984Y0018749D01*
X0078932Y0018642D01*
X0078876Y0018537D01*
X0078817Y0018433D01*
X0078755Y0018332D01*
X0078689Y0018232D01*
X0078620Y0018135D01*
X0078548Y0018041D01*
X0078472Y0017948D01*
X0078394Y0017859D01*
X0078313Y0017772D01*
X0078228Y0017687D01*
X0078141Y0017606D01*
X0078052Y0017528D01*
X0077959Y0017452D01*
X0077865Y0017380D01*
X0077768Y0017311D01*
X0077668Y0017245D01*
X0077567Y0017183D01*
X0077463Y0017124D01*
X0077358Y0017068D01*
X0077251Y0017016D01*
X0077142Y0016968D01*
X0077031Y0016923D01*
X0076919Y0016882D01*
X0076806Y0016845D01*
X0076692Y0016812D01*
X0076576Y0016782D01*
X0076460Y0016756D01*
X0076343Y0016735D01*
X0076225Y0016717D01*
X0076107Y0016703D01*
X0075988Y0016693D01*
X0075869Y0016687D01*
X0075750Y0016685D01*
X0075631Y0016687D01*
X0075512Y0016693D01*
X0075393Y0016703D01*
X0075275Y0016717D01*
X0075157Y0016735D01*
X0075040Y0016756D01*
X0074924Y0016782D01*
X0074808Y0016812D01*
X0074694Y0016845D01*
X0074581Y0016882D01*
X0074469Y0016923D01*
X0074358Y0016968D01*
X0074249Y0017016D01*
X0074142Y0017068D01*
X0074037Y0017124D01*
X0073933Y0017183D01*
X0073832Y0017245D01*
X0073732Y0017311D01*
X0073635Y0017380D01*
X0073541Y0017452D01*
X0073448Y0017528D01*
X0073359Y0017606D01*
X0073272Y0017687D01*
X0073187Y0017772D01*
X0073106Y0017859D01*
X0073028Y0017948D01*
X0072952Y0018041D01*
X0072880Y0018135D01*
X0072811Y0018232D01*
X0072745Y0018332D01*
X0072683Y0018433D01*
X0072624Y0018537D01*
X0072568Y0018642D01*
X0072516Y0018749D01*
X0072468Y0018858D01*
X0072423Y0018969D01*
X0072382Y0019081D01*
X0072345Y0019194D01*
X0072312Y0019308D01*
X0072282Y0019424D01*
X0072256Y0019540D01*
X0072235Y0019657D01*
X0072217Y0019775D01*
X0072203Y0019893D01*
X0072193Y0020012D01*
X0072187Y0020131D01*
X0072185Y0020250D01*
D22*
X0075750Y0020250D03*
M02*
