G75*
%MOIN*%
%OFA0B0*%
%FSLAX25Y25*%
%IPPOS*%
%LPD*%
%AMOC8*
5,1,8,0,0,1.08239X$1,22.5*
%
%ADD10C,0.07493*%
%ADD11R,0.06312X0.07099*%
%ADD12R,0.04737X0.05131*%
%ADD13R,0.07099X0.06312*%
%ADD14C,0.01990*%
%ADD15R,0.07690X0.02375*%
%ADD16R,0.06548X0.08674*%
%ADD17R,0.10643X0.06410*%
%ADD18C,0.00400*%
%ADD19R,0.05131X0.04737*%
%ADD20R,0.03556X0.06706*%
%ADD21R,0.04737X0.03162*%
%ADD22R,0.04737X0.03950*%
%ADD23C,0.04343*%
%ADD24C,0.08200*%
%ADD25C,0.04737*%
%ADD26R,0.05524X0.03162*%
%ADD27R,0.04737X0.07887*%
%ADD28R,0.01784X0.03556*%
%ADD29R,0.03556X0.01784*%
%ADD30R,0.05600X0.09600*%
%ADD31R,0.14973X0.09461*%
%ADD32R,0.03950X0.05524*%
%ADD33R,0.01587X0.05131*%
%ADD34R,0.01587X0.04737*%
%ADD35R,0.05524X0.08674*%
%ADD36R,0.03162X0.06115*%
%ADD37R,0.05524X0.02965*%
%ADD38R,0.11824X0.10249*%
%ADD39C,0.08800*%
%ADD40R,0.03556X0.03556*%
%ADD41R,0.04068X0.03280*%
%ADD42R,0.03800X0.06800*%
%ADD43C,0.05000*%
%ADD44C,0.06706*%
D10*
X0208750Y0209580D03*
X0430750Y0209580D03*
X0430750Y0371580D03*
X0208750Y0371580D03*
D11*
X0295738Y0304080D03*
X0306762Y0304080D03*
X0084762Y0304080D03*
X0073738Y0304080D03*
X0073738Y0142080D03*
X0084762Y0142080D03*
X0295738Y0142080D03*
X0306762Y0142080D03*
D12*
X0321250Y0153734D03*
X0327250Y0153734D03*
X0327250Y0160426D03*
X0321250Y0160426D03*
X0321250Y0166734D03*
X0321250Y0173426D03*
X0339250Y0160426D03*
X0345050Y0160426D03*
X0345050Y0153734D03*
X0339250Y0153734D03*
X0361750Y0130426D03*
X0361750Y0123734D03*
X0380750Y0123734D03*
X0380750Y0130426D03*
X0394250Y0130926D03*
X0402250Y0137234D03*
X0408250Y0137234D03*
X0408250Y0143926D03*
X0402250Y0143926D03*
X0393250Y0155234D03*
X0387250Y0155234D03*
X0387250Y0161926D03*
X0393250Y0161926D03*
X0415750Y0130926D03*
X0415750Y0124234D03*
X0416250Y0115926D03*
X0416250Y0109234D03*
X0415250Y0094426D03*
X0421250Y0094426D03*
X0421250Y0087734D03*
X0415250Y0087734D03*
X0394250Y0124234D03*
X0443750Y0176234D03*
X0449750Y0176234D03*
X0449750Y0182926D03*
X0443750Y0182926D03*
X0421250Y0249734D03*
X0415250Y0249734D03*
X0415250Y0256426D03*
X0421250Y0256426D03*
X0416250Y0271234D03*
X0416250Y0277926D03*
X0415750Y0286234D03*
X0415750Y0292926D03*
X0408250Y0299234D03*
X0402250Y0299234D03*
X0394250Y0292926D03*
X0394250Y0286234D03*
X0380750Y0285734D03*
X0380750Y0292426D03*
X0402250Y0305926D03*
X0408250Y0305926D03*
X0393250Y0317234D03*
X0387250Y0317234D03*
X0387250Y0323926D03*
X0393250Y0323926D03*
X0361750Y0292426D03*
X0361750Y0285734D03*
X0345050Y0315734D03*
X0339250Y0315734D03*
X0339250Y0322426D03*
X0345050Y0322426D03*
X0327250Y0322426D03*
X0321250Y0322426D03*
X0321250Y0328734D03*
X0321250Y0335426D03*
X0321250Y0315734D03*
X0327250Y0315734D03*
X0320750Y0358234D03*
X0320750Y0364926D03*
X0227750Y0344926D03*
X0221750Y0344926D03*
X0221750Y0338234D03*
X0227750Y0338234D03*
X0186250Y0305926D03*
X0180250Y0305926D03*
X0180250Y0299234D03*
X0186250Y0299234D03*
X0193750Y0292926D03*
X0193750Y0286234D03*
X0194250Y0277926D03*
X0194250Y0271234D03*
X0193250Y0256426D03*
X0199250Y0256426D03*
X0199250Y0249734D03*
X0193250Y0249734D03*
X0172250Y0286234D03*
X0172250Y0292926D03*
X0158750Y0292426D03*
X0158750Y0285734D03*
X0139750Y0285734D03*
X0139750Y0292426D03*
X0123050Y0315734D03*
X0117250Y0315734D03*
X0117250Y0322426D03*
X0123050Y0322426D03*
X0105250Y0322426D03*
X0099250Y0322426D03*
X0099250Y0328734D03*
X0099250Y0335426D03*
X0099250Y0315734D03*
X0105250Y0315734D03*
X0165250Y0317234D03*
X0171250Y0317234D03*
X0171250Y0323926D03*
X0165250Y0323926D03*
X0098750Y0358234D03*
X0098750Y0364926D03*
X0098750Y0202926D03*
X0098750Y0196234D03*
X0099250Y0173426D03*
X0099250Y0166734D03*
X0099250Y0160426D03*
X0105250Y0160426D03*
X0105250Y0153734D03*
X0099250Y0153734D03*
X0117250Y0153734D03*
X0123050Y0153734D03*
X0123050Y0160426D03*
X0117250Y0160426D03*
X0139750Y0130426D03*
X0139750Y0123734D03*
X0158750Y0123734D03*
X0158750Y0130426D03*
X0172250Y0130926D03*
X0180250Y0137234D03*
X0186250Y0137234D03*
X0186250Y0143926D03*
X0180250Y0143926D03*
X0171250Y0155234D03*
X0165250Y0155234D03*
X0165250Y0161926D03*
X0171250Y0161926D03*
X0193750Y0130926D03*
X0193750Y0124234D03*
X0194250Y0115926D03*
X0194250Y0109234D03*
X0193250Y0094426D03*
X0199250Y0094426D03*
X0199250Y0087734D03*
X0193250Y0087734D03*
X0172250Y0124234D03*
X0221750Y0176234D03*
X0227750Y0176234D03*
X0227750Y0182926D03*
X0221750Y0182926D03*
X0320750Y0196234D03*
X0320750Y0202926D03*
X0443750Y0338234D03*
X0449750Y0338234D03*
X0449750Y0344926D03*
X0443750Y0344926D03*
D13*
X0379250Y0328592D03*
X0379250Y0317568D03*
X0353250Y0317568D03*
X0353250Y0328592D03*
X0157250Y0328592D03*
X0157250Y0317568D03*
X0131250Y0317568D03*
X0131250Y0328592D03*
X0131250Y0166592D03*
X0131250Y0155568D03*
X0157250Y0155568D03*
X0157250Y0166592D03*
X0353250Y0166592D03*
X0353250Y0155568D03*
X0379250Y0155568D03*
X0379250Y0166592D03*
D14*
X0444524Y0101203D02*
X0444524Y0098457D01*
X0444524Y0101203D02*
X0447270Y0101203D01*
X0447270Y0098457D01*
X0444524Y0098457D01*
X0444524Y0100347D02*
X0447270Y0100347D01*
X0451430Y0101203D02*
X0451430Y0098457D01*
X0451430Y0101203D02*
X0454176Y0101203D01*
X0454176Y0098457D01*
X0451430Y0098457D01*
X0451430Y0100347D02*
X0454176Y0100347D01*
X0451430Y0095253D02*
X0451430Y0092507D01*
X0451430Y0095253D02*
X0454176Y0095253D01*
X0454176Y0092507D01*
X0451430Y0092507D01*
X0451430Y0094397D02*
X0454176Y0094397D01*
X0444524Y0095253D02*
X0444524Y0092507D01*
X0444524Y0095253D02*
X0447270Y0095253D01*
X0447270Y0092507D01*
X0444524Y0092507D01*
X0444524Y0094397D02*
X0447270Y0094397D01*
X0447270Y0089203D02*
X0447270Y0086457D01*
X0444524Y0086457D01*
X0444524Y0089203D01*
X0447270Y0089203D01*
X0447270Y0088347D02*
X0444524Y0088347D01*
X0447270Y0083203D02*
X0447270Y0080457D01*
X0444524Y0080457D01*
X0444524Y0083203D01*
X0447270Y0083203D01*
X0447270Y0082347D02*
X0444524Y0082347D01*
X0454176Y0083203D02*
X0454176Y0080457D01*
X0451430Y0080457D01*
X0451430Y0083203D01*
X0454176Y0083203D01*
X0454176Y0082347D02*
X0451430Y0082347D01*
X0454176Y0086457D02*
X0454176Y0089203D01*
X0454176Y0086457D02*
X0451430Y0086457D01*
X0451430Y0089203D01*
X0454176Y0089203D01*
X0454176Y0088347D02*
X0451430Y0088347D01*
X0232176Y0089203D02*
X0232176Y0086457D01*
X0229430Y0086457D01*
X0229430Y0089203D01*
X0232176Y0089203D01*
X0232176Y0088347D02*
X0229430Y0088347D01*
X0225270Y0089203D02*
X0225270Y0086457D01*
X0222524Y0086457D01*
X0222524Y0089203D01*
X0225270Y0089203D01*
X0225270Y0088347D02*
X0222524Y0088347D01*
X0225270Y0083203D02*
X0225270Y0080457D01*
X0222524Y0080457D01*
X0222524Y0083203D01*
X0225270Y0083203D01*
X0225270Y0082347D02*
X0222524Y0082347D01*
X0232176Y0083203D02*
X0232176Y0080457D01*
X0229430Y0080457D01*
X0229430Y0083203D01*
X0232176Y0083203D01*
X0232176Y0082347D02*
X0229430Y0082347D01*
X0229430Y0092507D02*
X0229430Y0095253D01*
X0232176Y0095253D01*
X0232176Y0092507D01*
X0229430Y0092507D01*
X0229430Y0094397D02*
X0232176Y0094397D01*
X0229430Y0098457D02*
X0229430Y0101203D01*
X0232176Y0101203D01*
X0232176Y0098457D01*
X0229430Y0098457D01*
X0229430Y0100347D02*
X0232176Y0100347D01*
X0222524Y0101203D02*
X0222524Y0098457D01*
X0222524Y0101203D02*
X0225270Y0101203D01*
X0225270Y0098457D01*
X0222524Y0098457D01*
X0222524Y0100347D02*
X0225270Y0100347D01*
X0222524Y0095253D02*
X0222524Y0092507D01*
X0222524Y0095253D02*
X0225270Y0095253D01*
X0225270Y0092507D01*
X0222524Y0092507D01*
X0222524Y0094397D02*
X0225270Y0094397D01*
X0225270Y0242457D02*
X0225270Y0245203D01*
X0225270Y0242457D02*
X0222524Y0242457D01*
X0222524Y0245203D01*
X0225270Y0245203D01*
X0225270Y0244347D02*
X0222524Y0244347D01*
X0225270Y0248457D02*
X0225270Y0251203D01*
X0225270Y0248457D02*
X0222524Y0248457D01*
X0222524Y0251203D01*
X0225270Y0251203D01*
X0225270Y0250347D02*
X0222524Y0250347D01*
X0232176Y0251203D02*
X0232176Y0248457D01*
X0229430Y0248457D01*
X0229430Y0251203D01*
X0232176Y0251203D01*
X0232176Y0250347D02*
X0229430Y0250347D01*
X0232176Y0245203D02*
X0232176Y0242457D01*
X0229430Y0242457D01*
X0229430Y0245203D01*
X0232176Y0245203D01*
X0232176Y0244347D02*
X0229430Y0244347D01*
X0229430Y0254507D02*
X0229430Y0257253D01*
X0232176Y0257253D01*
X0232176Y0254507D01*
X0229430Y0254507D01*
X0229430Y0256397D02*
X0232176Y0256397D01*
X0229430Y0260457D02*
X0229430Y0263203D01*
X0232176Y0263203D01*
X0232176Y0260457D01*
X0229430Y0260457D01*
X0229430Y0262347D02*
X0232176Y0262347D01*
X0222524Y0263203D02*
X0222524Y0260457D01*
X0222524Y0263203D02*
X0225270Y0263203D01*
X0225270Y0260457D01*
X0222524Y0260457D01*
X0222524Y0262347D02*
X0225270Y0262347D01*
X0222524Y0257253D02*
X0222524Y0254507D01*
X0222524Y0257253D02*
X0225270Y0257253D01*
X0225270Y0254507D01*
X0222524Y0254507D01*
X0222524Y0256397D02*
X0225270Y0256397D01*
X0444524Y0257253D02*
X0444524Y0254507D01*
X0444524Y0257253D02*
X0447270Y0257253D01*
X0447270Y0254507D01*
X0444524Y0254507D01*
X0444524Y0256397D02*
X0447270Y0256397D01*
X0451430Y0257253D02*
X0451430Y0254507D01*
X0451430Y0257253D02*
X0454176Y0257253D01*
X0454176Y0254507D01*
X0451430Y0254507D01*
X0451430Y0256397D02*
X0454176Y0256397D01*
X0451430Y0260457D02*
X0451430Y0263203D01*
X0454176Y0263203D01*
X0454176Y0260457D01*
X0451430Y0260457D01*
X0451430Y0262347D02*
X0454176Y0262347D01*
X0444524Y0263203D02*
X0444524Y0260457D01*
X0444524Y0263203D02*
X0447270Y0263203D01*
X0447270Y0260457D01*
X0444524Y0260457D01*
X0444524Y0262347D02*
X0447270Y0262347D01*
X0447270Y0251203D02*
X0447270Y0248457D01*
X0444524Y0248457D01*
X0444524Y0251203D01*
X0447270Y0251203D01*
X0447270Y0250347D02*
X0444524Y0250347D01*
X0447270Y0245203D02*
X0447270Y0242457D01*
X0444524Y0242457D01*
X0444524Y0245203D01*
X0447270Y0245203D01*
X0447270Y0244347D02*
X0444524Y0244347D01*
X0454176Y0245203D02*
X0454176Y0242457D01*
X0451430Y0242457D01*
X0451430Y0245203D01*
X0454176Y0245203D01*
X0454176Y0244347D02*
X0451430Y0244347D01*
X0454176Y0248457D02*
X0454176Y0251203D01*
X0454176Y0248457D02*
X0451430Y0248457D01*
X0451430Y0251203D01*
X0454176Y0251203D01*
X0454176Y0250347D02*
X0451430Y0250347D01*
D15*
X0281250Y0311462D03*
X0281250Y0314021D03*
X0281250Y0316580D03*
X0281250Y0319139D03*
X0281250Y0321698D03*
X0059250Y0321698D03*
X0059250Y0319139D03*
X0059250Y0316580D03*
X0059250Y0314021D03*
X0059250Y0311462D03*
X0059250Y0159698D03*
X0059250Y0157139D03*
X0059250Y0154580D03*
X0059250Y0152021D03*
X0059250Y0149462D03*
X0281250Y0149462D03*
X0281250Y0152021D03*
X0281250Y0154580D03*
X0281250Y0157139D03*
X0281250Y0159698D03*
D16*
X0282333Y0165997D03*
X0282333Y0143163D03*
X0060333Y0143163D03*
X0060333Y0165997D03*
X0060333Y0305163D03*
X0060333Y0327997D03*
X0282333Y0327997D03*
X0282333Y0305163D03*
D17*
X0270719Y0312791D03*
X0270719Y0320369D03*
X0048719Y0320369D03*
X0048719Y0312791D03*
X0048719Y0158369D03*
X0048719Y0150791D03*
X0270719Y0150791D03*
X0270719Y0158369D03*
D18*
X0268553Y0162454D02*
X0268242Y0162445D01*
X0267936Y0162505D01*
X0267651Y0162632D01*
X0267402Y0162819D01*
X0267200Y0163057D01*
X0267057Y0163333D01*
X0266978Y0163635D01*
X0266978Y0166391D01*
X0267018Y0166741D01*
X0267134Y0167074D01*
X0267322Y0167373D01*
X0267571Y0167622D01*
X0267870Y0167810D01*
X0268203Y0167926D01*
X0268553Y0167966D01*
X0275640Y0167966D01*
X0275640Y0169541D01*
X0278789Y0169541D01*
X0278789Y0162454D01*
X0268553Y0162454D01*
X0267775Y0162577D02*
X0278789Y0162577D01*
X0278789Y0162975D02*
X0267269Y0162975D01*
X0267046Y0163374D02*
X0278789Y0163374D01*
X0278789Y0163772D02*
X0266978Y0163772D01*
X0266978Y0164171D02*
X0278789Y0164171D01*
X0278789Y0164569D02*
X0266978Y0164569D01*
X0266978Y0164968D02*
X0278789Y0164968D01*
X0278789Y0165366D02*
X0266978Y0165366D01*
X0266978Y0165765D02*
X0278789Y0165765D01*
X0278789Y0166163D02*
X0266978Y0166163D01*
X0266998Y0166562D02*
X0278789Y0166562D01*
X0278789Y0166960D02*
X0267094Y0166960D01*
X0267313Y0167359D02*
X0278789Y0167359D01*
X0278789Y0167757D02*
X0267786Y0167757D01*
X0275640Y0168156D02*
X0278789Y0168156D01*
X0278789Y0168554D02*
X0275640Y0168554D01*
X0275640Y0168953D02*
X0278789Y0168953D01*
X0278789Y0169351D02*
X0275640Y0169351D01*
X0278789Y0146706D02*
X0268159Y0146706D01*
X0267897Y0146676D01*
X0267647Y0146589D01*
X0267423Y0146448D01*
X0267236Y0146261D01*
X0267095Y0146037D01*
X0267008Y0145788D01*
X0266978Y0145525D01*
X0266978Y0142375D01*
X0266969Y0142064D01*
X0267029Y0141758D01*
X0267156Y0141473D01*
X0267343Y0141224D01*
X0267581Y0141022D01*
X0267858Y0140879D01*
X0268159Y0140800D01*
X0275640Y0140800D01*
X0275640Y0139619D01*
X0278789Y0139619D01*
X0278789Y0146706D01*
X0278789Y0146636D02*
X0267782Y0146636D01*
X0267221Y0146238D02*
X0278789Y0146238D01*
X0278789Y0145839D02*
X0267026Y0145839D01*
X0266978Y0145441D02*
X0278789Y0145441D01*
X0278789Y0145042D02*
X0266978Y0145042D01*
X0266978Y0144644D02*
X0278789Y0144644D01*
X0278789Y0144245D02*
X0266978Y0144245D01*
X0266978Y0143847D02*
X0278789Y0143847D01*
X0278789Y0143448D02*
X0266978Y0143448D01*
X0266978Y0143050D02*
X0278789Y0143050D01*
X0278789Y0142651D02*
X0266978Y0142651D01*
X0266975Y0142252D02*
X0278789Y0142252D01*
X0278789Y0141854D02*
X0267010Y0141854D01*
X0267170Y0141455D02*
X0278789Y0141455D01*
X0278789Y0141057D02*
X0267540Y0141057D01*
X0275640Y0140658D02*
X0278789Y0140658D01*
X0278789Y0140260D02*
X0275640Y0140260D01*
X0275640Y0139861D02*
X0278789Y0139861D01*
X0056789Y0139861D02*
X0053640Y0139861D01*
X0053640Y0139619D02*
X0053640Y0140800D01*
X0046159Y0140800D01*
X0045858Y0140879D01*
X0045581Y0141022D01*
X0045343Y0141224D01*
X0045156Y0141473D01*
X0045029Y0141758D01*
X0044969Y0142064D01*
X0044978Y0142375D01*
X0044978Y0145525D01*
X0045008Y0145788D01*
X0045095Y0146037D01*
X0045236Y0146261D01*
X0045423Y0146448D01*
X0045647Y0146589D01*
X0045897Y0146676D01*
X0046159Y0146706D01*
X0056789Y0146706D01*
X0056789Y0139619D01*
X0053640Y0139619D01*
X0053640Y0140260D02*
X0056789Y0140260D01*
X0056789Y0140658D02*
X0053640Y0140658D01*
X0056789Y0141057D02*
X0045540Y0141057D01*
X0045170Y0141455D02*
X0056789Y0141455D01*
X0056789Y0141854D02*
X0045010Y0141854D01*
X0044975Y0142252D02*
X0056789Y0142252D01*
X0056789Y0142651D02*
X0044978Y0142651D01*
X0044978Y0143050D02*
X0056789Y0143050D01*
X0056789Y0143448D02*
X0044978Y0143448D01*
X0044978Y0143847D02*
X0056789Y0143847D01*
X0056789Y0144245D02*
X0044978Y0144245D01*
X0044978Y0144644D02*
X0056789Y0144644D01*
X0056789Y0145042D02*
X0044978Y0145042D01*
X0044978Y0145441D02*
X0056789Y0145441D01*
X0056789Y0145839D02*
X0045026Y0145839D01*
X0045221Y0146238D02*
X0056789Y0146238D01*
X0056789Y0146636D02*
X0045782Y0146636D01*
X0046242Y0162445D02*
X0045936Y0162505D01*
X0045651Y0162632D01*
X0045402Y0162819D01*
X0045200Y0163057D01*
X0045057Y0163333D01*
X0044978Y0163635D01*
X0044978Y0166391D01*
X0045018Y0166741D01*
X0045134Y0167074D01*
X0045322Y0167373D01*
X0045571Y0167622D01*
X0045870Y0167810D01*
X0046203Y0167926D01*
X0046553Y0167966D01*
X0053640Y0167966D01*
X0053640Y0169541D01*
X0056789Y0169541D01*
X0056789Y0162454D01*
X0046553Y0162454D01*
X0046242Y0162445D01*
X0045775Y0162577D02*
X0056789Y0162577D01*
X0056789Y0162975D02*
X0045269Y0162975D01*
X0045046Y0163374D02*
X0056789Y0163374D01*
X0056789Y0163772D02*
X0044978Y0163772D01*
X0044978Y0164171D02*
X0056789Y0164171D01*
X0056789Y0164569D02*
X0044978Y0164569D01*
X0044978Y0164968D02*
X0056789Y0164968D01*
X0056789Y0165366D02*
X0044978Y0165366D01*
X0044978Y0165765D02*
X0056789Y0165765D01*
X0056789Y0166163D02*
X0044978Y0166163D01*
X0044998Y0166562D02*
X0056789Y0166562D01*
X0056789Y0166960D02*
X0045094Y0166960D01*
X0045313Y0167359D02*
X0056789Y0167359D01*
X0056789Y0167757D02*
X0045786Y0167757D01*
X0053640Y0168156D02*
X0056789Y0168156D01*
X0056789Y0168554D02*
X0053640Y0168554D01*
X0053640Y0168953D02*
X0056789Y0168953D01*
X0056789Y0169351D02*
X0053640Y0169351D01*
X0053640Y0301619D02*
X0053640Y0302800D01*
X0046159Y0302800D01*
X0045858Y0302879D01*
X0045581Y0303022D01*
X0045343Y0303224D01*
X0045156Y0303473D01*
X0045029Y0303758D01*
X0044969Y0304064D01*
X0044978Y0304375D01*
X0044978Y0307525D01*
X0045008Y0307788D01*
X0045095Y0308037D01*
X0045236Y0308261D01*
X0045423Y0308448D01*
X0045647Y0308589D01*
X0045897Y0308676D01*
X0046159Y0308706D01*
X0056789Y0308706D01*
X0056789Y0301619D01*
X0053640Y0301619D01*
X0053640Y0301657D02*
X0056789Y0301657D01*
X0056789Y0302056D02*
X0053640Y0302056D01*
X0053640Y0302454D02*
X0056789Y0302454D01*
X0056789Y0302853D02*
X0045959Y0302853D01*
X0045323Y0303251D02*
X0056789Y0303251D01*
X0056789Y0303650D02*
X0045078Y0303650D01*
X0044972Y0304048D02*
X0056789Y0304048D01*
X0056789Y0304447D02*
X0044978Y0304447D01*
X0044978Y0304845D02*
X0056789Y0304845D01*
X0056789Y0305244D02*
X0044978Y0305244D01*
X0044978Y0305642D02*
X0056789Y0305642D01*
X0056789Y0306041D02*
X0044978Y0306041D01*
X0044978Y0306439D02*
X0056789Y0306439D01*
X0056789Y0306838D02*
X0044978Y0306838D01*
X0044978Y0307236D02*
X0056789Y0307236D01*
X0056789Y0307635D02*
X0044991Y0307635D01*
X0045094Y0308033D02*
X0056789Y0308033D01*
X0056789Y0308432D02*
X0045406Y0308432D01*
X0046242Y0324445D02*
X0045936Y0324505D01*
X0045651Y0324632D01*
X0045402Y0324819D01*
X0045200Y0325057D01*
X0045057Y0325333D01*
X0044978Y0325635D01*
X0044978Y0328391D01*
X0045018Y0328741D01*
X0045134Y0329074D01*
X0045322Y0329373D01*
X0045571Y0329622D01*
X0045870Y0329810D01*
X0046203Y0329926D01*
X0046553Y0329966D01*
X0053640Y0329966D01*
X0053640Y0331541D01*
X0056789Y0331541D01*
X0056789Y0324454D01*
X0046553Y0324454D01*
X0046242Y0324445D01*
X0045466Y0324771D02*
X0056789Y0324771D01*
X0056789Y0325169D02*
X0045142Y0325169D01*
X0044996Y0325568D02*
X0056789Y0325568D01*
X0056789Y0325966D02*
X0044978Y0325966D01*
X0044978Y0326365D02*
X0056789Y0326365D01*
X0056789Y0326763D02*
X0044978Y0326763D01*
X0044978Y0327162D02*
X0056789Y0327162D01*
X0056789Y0327560D02*
X0044978Y0327560D01*
X0044978Y0327959D02*
X0056789Y0327959D01*
X0056789Y0328357D02*
X0044978Y0328357D01*
X0045023Y0328756D02*
X0056789Y0328756D01*
X0056789Y0329154D02*
X0045185Y0329154D01*
X0045502Y0329553D02*
X0056789Y0329553D01*
X0056789Y0329951D02*
X0046424Y0329951D01*
X0053640Y0330350D02*
X0056789Y0330350D01*
X0056789Y0330748D02*
X0053640Y0330748D01*
X0053640Y0331147D02*
X0056789Y0331147D01*
X0266978Y0328391D02*
X0266978Y0325635D01*
X0267057Y0325333D01*
X0267200Y0325057D01*
X0267402Y0324819D01*
X0267651Y0324632D01*
X0267936Y0324505D01*
X0268242Y0324445D01*
X0268553Y0324454D01*
X0278789Y0324454D01*
X0278789Y0331541D01*
X0275640Y0331541D01*
X0275640Y0329966D01*
X0268553Y0329966D01*
X0268203Y0329926D01*
X0267870Y0329810D01*
X0267571Y0329622D01*
X0267322Y0329373D01*
X0267134Y0329074D01*
X0267018Y0328741D01*
X0266978Y0328391D01*
X0266978Y0328357D02*
X0278789Y0328357D01*
X0278789Y0327959D02*
X0266978Y0327959D01*
X0266978Y0327560D02*
X0278789Y0327560D01*
X0278789Y0327162D02*
X0266978Y0327162D01*
X0266978Y0326763D02*
X0278789Y0326763D01*
X0278789Y0326365D02*
X0266978Y0326365D01*
X0266978Y0325966D02*
X0278789Y0325966D01*
X0278789Y0325568D02*
X0266996Y0325568D01*
X0267142Y0325169D02*
X0278789Y0325169D01*
X0278789Y0324771D02*
X0267466Y0324771D01*
X0267023Y0328756D02*
X0278789Y0328756D01*
X0278789Y0329154D02*
X0267185Y0329154D01*
X0267502Y0329553D02*
X0278789Y0329553D01*
X0278789Y0329951D02*
X0268424Y0329951D01*
X0275640Y0330350D02*
X0278789Y0330350D01*
X0278789Y0330748D02*
X0275640Y0330748D01*
X0275640Y0331147D02*
X0278789Y0331147D01*
X0278789Y0308706D02*
X0268159Y0308706D01*
X0267897Y0308676D01*
X0267647Y0308589D01*
X0267423Y0308448D01*
X0267236Y0308261D01*
X0267095Y0308037D01*
X0267008Y0307788D01*
X0266978Y0307525D01*
X0266978Y0304375D01*
X0266969Y0304064D01*
X0267029Y0303758D01*
X0267156Y0303473D01*
X0267343Y0303224D01*
X0267581Y0303022D01*
X0267858Y0302879D01*
X0268159Y0302800D01*
X0275640Y0302800D01*
X0275640Y0301619D01*
X0278789Y0301619D01*
X0278789Y0308706D01*
X0278789Y0308432D02*
X0267406Y0308432D01*
X0267094Y0308033D02*
X0278789Y0308033D01*
X0278789Y0307635D02*
X0266991Y0307635D01*
X0266978Y0307236D02*
X0278789Y0307236D01*
X0278789Y0306838D02*
X0266978Y0306838D01*
X0266978Y0306439D02*
X0278789Y0306439D01*
X0278789Y0306041D02*
X0266978Y0306041D01*
X0266978Y0305642D02*
X0278789Y0305642D01*
X0278789Y0305244D02*
X0266978Y0305244D01*
X0266978Y0304845D02*
X0278789Y0304845D01*
X0278789Y0304447D02*
X0266978Y0304447D01*
X0266972Y0304048D02*
X0278789Y0304048D01*
X0278789Y0303650D02*
X0267078Y0303650D01*
X0267323Y0303251D02*
X0278789Y0303251D01*
X0278789Y0302853D02*
X0267959Y0302853D01*
X0275640Y0302454D02*
X0278789Y0302454D01*
X0278789Y0302056D02*
X0275640Y0302056D01*
X0275640Y0301657D02*
X0278789Y0301657D01*
D19*
X0334404Y0264480D03*
X0341096Y0264480D03*
X0363904Y0250580D03*
X0370596Y0250580D03*
X0367904Y0285580D03*
X0374596Y0285580D03*
X0355596Y0285580D03*
X0348904Y0285580D03*
X0434004Y0261830D03*
X0434004Y0255880D03*
X0440696Y0255880D03*
X0440696Y0261830D03*
X0440696Y0249830D03*
X0440696Y0243830D03*
X0434004Y0243830D03*
X0434004Y0249830D03*
X0374596Y0123580D03*
X0367904Y0123580D03*
X0355596Y0123580D03*
X0348904Y0123580D03*
X0341096Y0102480D03*
X0334404Y0102480D03*
X0363904Y0088580D03*
X0370596Y0088580D03*
X0434004Y0087830D03*
X0434004Y0081830D03*
X0440696Y0081830D03*
X0440696Y0087830D03*
X0440696Y0093880D03*
X0440696Y0099830D03*
X0434004Y0099830D03*
X0434004Y0093880D03*
X0218696Y0093880D03*
X0218696Y0099830D03*
X0212004Y0099830D03*
X0212004Y0093880D03*
X0212004Y0087830D03*
X0212004Y0081830D03*
X0218696Y0081830D03*
X0218696Y0087830D03*
X0152596Y0123580D03*
X0145904Y0123580D03*
X0133596Y0123580D03*
X0126904Y0123580D03*
X0119096Y0102480D03*
X0112404Y0102480D03*
X0141904Y0088580D03*
X0148596Y0088580D03*
X0212004Y0243830D03*
X0212004Y0249830D03*
X0218696Y0249830D03*
X0218696Y0243830D03*
X0218696Y0255880D03*
X0218696Y0261830D03*
X0212004Y0261830D03*
X0212004Y0255880D03*
X0152596Y0285580D03*
X0145904Y0285580D03*
X0133596Y0285580D03*
X0126904Y0285580D03*
X0119096Y0264480D03*
X0112404Y0264480D03*
X0141904Y0250580D03*
X0148596Y0250580D03*
D20*
X0077608Y0234570D03*
X0071703Y0234570D03*
X0059892Y0234570D03*
X0281892Y0234570D03*
X0293703Y0234570D03*
X0299608Y0234570D03*
X0299608Y0072570D03*
X0293703Y0072570D03*
X0281892Y0072570D03*
X0077608Y0072570D03*
X0071703Y0072570D03*
X0059892Y0072570D03*
D21*
X0054380Y0061743D03*
X0083120Y0061743D03*
X0276380Y0061743D03*
X0305120Y0061743D03*
X0305120Y0223743D03*
X0276380Y0223743D03*
X0083120Y0223743D03*
X0054380Y0223743D03*
D22*
X0054380Y0232011D03*
X0083120Y0232011D03*
X0276380Y0232011D03*
X0305120Y0232011D03*
X0305120Y0070011D03*
X0276380Y0070011D03*
X0083120Y0070011D03*
X0054380Y0070011D03*
D23*
X0062844Y0065680D03*
X0074656Y0065680D03*
X0284844Y0065680D03*
X0296656Y0065680D03*
X0296656Y0227680D03*
X0284844Y0227680D03*
X0074656Y0227680D03*
X0062844Y0227680D03*
D24*
X0043750Y0231580D03*
X0043750Y0241580D03*
X0098750Y0231580D03*
X0108750Y0231580D03*
X0118750Y0231580D03*
X0128750Y0231580D03*
X0138750Y0231580D03*
X0148750Y0231580D03*
X0158750Y0231580D03*
X0168750Y0231580D03*
X0178750Y0231580D03*
X0188750Y0231580D03*
X0198750Y0231580D03*
X0198750Y0221580D03*
X0188750Y0221580D03*
X0178750Y0221580D03*
X0168750Y0221580D03*
X0158750Y0221580D03*
X0148750Y0221580D03*
X0138750Y0221580D03*
X0128750Y0221580D03*
X0118750Y0221580D03*
X0108750Y0221580D03*
X0098750Y0221580D03*
X0108750Y0209580D03*
X0108750Y0199580D03*
X0118750Y0199580D03*
X0118750Y0209580D03*
X0128750Y0209580D03*
X0138750Y0209580D03*
X0138750Y0199580D03*
X0128750Y0199580D03*
X0148750Y0199580D03*
X0148750Y0209580D03*
X0158750Y0209580D03*
X0168750Y0209580D03*
X0168750Y0199580D03*
X0158750Y0199580D03*
X0178750Y0199580D03*
X0178750Y0209580D03*
X0188750Y0209580D03*
X0188750Y0199580D03*
X0198750Y0199580D03*
X0208750Y0199580D03*
X0198750Y0209580D03*
X0265750Y0231580D03*
X0265750Y0241580D03*
X0320750Y0231580D03*
X0330750Y0231580D03*
X0340750Y0231580D03*
X0350750Y0231580D03*
X0360750Y0231580D03*
X0370750Y0231580D03*
X0380750Y0231580D03*
X0390750Y0231580D03*
X0400750Y0231580D03*
X0410750Y0231580D03*
X0420750Y0231580D03*
X0420750Y0221580D03*
X0410750Y0221580D03*
X0400750Y0221580D03*
X0390750Y0221580D03*
X0380750Y0221580D03*
X0370750Y0221580D03*
X0360750Y0221580D03*
X0350750Y0221580D03*
X0340750Y0221580D03*
X0330750Y0221580D03*
X0320750Y0221580D03*
X0330750Y0209580D03*
X0330750Y0199580D03*
X0340750Y0199580D03*
X0340750Y0209580D03*
X0350750Y0209580D03*
X0360750Y0209580D03*
X0360750Y0199580D03*
X0350750Y0199580D03*
X0370750Y0199580D03*
X0370750Y0209580D03*
X0380750Y0209580D03*
X0390750Y0209580D03*
X0390750Y0199580D03*
X0380750Y0199580D03*
X0400750Y0199580D03*
X0400750Y0209580D03*
X0410750Y0209580D03*
X0410750Y0199580D03*
X0420750Y0199580D03*
X0430750Y0199580D03*
X0420750Y0209580D03*
X0265750Y0079580D03*
X0265750Y0069580D03*
X0320750Y0069580D03*
X0330750Y0069580D03*
X0340750Y0069580D03*
X0350750Y0069580D03*
X0360750Y0069580D03*
X0370750Y0069580D03*
X0380750Y0069580D03*
X0390750Y0069580D03*
X0400750Y0069580D03*
X0410750Y0069580D03*
X0420750Y0069580D03*
X0420750Y0059580D03*
X0410750Y0059580D03*
X0400750Y0059580D03*
X0390750Y0059580D03*
X0380750Y0059580D03*
X0370750Y0059580D03*
X0360750Y0059580D03*
X0350750Y0059580D03*
X0340750Y0059580D03*
X0330750Y0059580D03*
X0320750Y0059580D03*
X0198750Y0059580D03*
X0188750Y0059580D03*
X0178750Y0059580D03*
X0168750Y0059580D03*
X0158750Y0059580D03*
X0148750Y0059580D03*
X0138750Y0059580D03*
X0128750Y0059580D03*
X0118750Y0059580D03*
X0108750Y0059580D03*
X0098750Y0059580D03*
X0098750Y0069580D03*
X0108750Y0069580D03*
X0118750Y0069580D03*
X0128750Y0069580D03*
X0138750Y0069580D03*
X0148750Y0069580D03*
X0158750Y0069580D03*
X0168750Y0069580D03*
X0178750Y0069580D03*
X0188750Y0069580D03*
X0198750Y0069580D03*
X0043750Y0069580D03*
X0043750Y0079580D03*
X0108750Y0361580D03*
X0108750Y0371580D03*
X0118750Y0371580D03*
X0118750Y0361580D03*
X0128750Y0361580D03*
X0138750Y0361580D03*
X0138750Y0371580D03*
X0128750Y0371580D03*
X0148750Y0371580D03*
X0148750Y0361580D03*
X0158750Y0361580D03*
X0168750Y0361580D03*
X0168750Y0371580D03*
X0158750Y0371580D03*
X0178750Y0371580D03*
X0178750Y0361580D03*
X0188750Y0361580D03*
X0188750Y0371580D03*
X0198750Y0371580D03*
X0198750Y0361580D03*
X0208750Y0361580D03*
X0330750Y0361580D03*
X0330750Y0371580D03*
X0340750Y0371580D03*
X0340750Y0361580D03*
X0350750Y0361580D03*
X0360750Y0361580D03*
X0360750Y0371580D03*
X0350750Y0371580D03*
X0370750Y0371580D03*
X0370750Y0361580D03*
X0380750Y0361580D03*
X0390750Y0361580D03*
X0390750Y0371580D03*
X0380750Y0371580D03*
X0400750Y0371580D03*
X0400750Y0361580D03*
X0410750Y0361580D03*
X0410750Y0371580D03*
X0420750Y0371580D03*
X0420750Y0361580D03*
X0430750Y0361580D03*
D25*
X0433750Y0384830D03*
X0465750Y0361580D03*
X0438250Y0306580D03*
X0438250Y0301580D03*
X0438250Y0296580D03*
X0433250Y0296580D03*
X0433250Y0301580D03*
X0433250Y0306580D03*
X0433250Y0291580D03*
X0433250Y0286580D03*
X0438250Y0286580D03*
X0438250Y0291580D03*
X0465750Y0199580D03*
X0438250Y0144580D03*
X0438250Y0139580D03*
X0438250Y0134580D03*
X0433250Y0134580D03*
X0433250Y0139580D03*
X0433250Y0144580D03*
X0433250Y0129580D03*
X0433250Y0124580D03*
X0438250Y0124580D03*
X0438250Y0129580D03*
X0267750Y0063580D03*
X0216250Y0124580D03*
X0216250Y0129580D03*
X0211250Y0129580D03*
X0211250Y0124580D03*
X0211250Y0134580D03*
X0211250Y0139580D03*
X0211250Y0144580D03*
X0216250Y0144580D03*
X0216250Y0139580D03*
X0216250Y0134580D03*
X0243750Y0199580D03*
X0267750Y0225580D03*
X0216250Y0286580D03*
X0216250Y0291580D03*
X0211250Y0291580D03*
X0211250Y0286580D03*
X0211250Y0296580D03*
X0211250Y0301580D03*
X0211250Y0306580D03*
X0216250Y0306580D03*
X0216250Y0301580D03*
X0216250Y0296580D03*
X0243750Y0361580D03*
X0075750Y0384830D03*
X0045750Y0225580D03*
X0045750Y0063580D03*
D26*
X0104726Y0080480D03*
X0104726Y0085480D03*
X0104726Y0090480D03*
X0104726Y0095480D03*
X0126774Y0095480D03*
X0126774Y0090480D03*
X0126774Y0085480D03*
X0126774Y0080480D03*
X0326726Y0080480D03*
X0326726Y0085480D03*
X0326726Y0090480D03*
X0326726Y0095480D03*
X0348774Y0095480D03*
X0348774Y0090480D03*
X0348774Y0085480D03*
X0348774Y0080480D03*
X0348774Y0242480D03*
X0348774Y0247480D03*
X0348774Y0252480D03*
X0348774Y0257480D03*
X0326726Y0257480D03*
X0326726Y0252480D03*
X0326726Y0247480D03*
X0326726Y0242480D03*
X0126774Y0242480D03*
X0126774Y0247480D03*
X0126774Y0252480D03*
X0126774Y0257480D03*
X0104726Y0257480D03*
X0104726Y0252480D03*
X0104726Y0247480D03*
X0104726Y0242480D03*
D27*
X0178079Y0288080D03*
X0187921Y0288080D03*
X0400079Y0288080D03*
X0409921Y0288080D03*
X0409921Y0126080D03*
X0400079Y0126080D03*
X0187921Y0126080D03*
X0178079Y0126080D03*
D28*
X0178171Y0115966D03*
X0176203Y0115966D03*
X0174234Y0115966D03*
X0172266Y0115966D03*
X0170297Y0115966D03*
X0168329Y0115966D03*
X0166360Y0115966D03*
X0164392Y0115966D03*
X0162423Y0115966D03*
X0180140Y0115966D03*
X0182108Y0115966D03*
X0184077Y0115966D03*
X0184077Y0089194D03*
X0182108Y0089194D03*
X0180140Y0089194D03*
X0178171Y0089194D03*
X0176203Y0089194D03*
X0174234Y0089194D03*
X0172266Y0089194D03*
X0170297Y0089194D03*
X0168329Y0089194D03*
X0166360Y0089194D03*
X0164392Y0089194D03*
X0162423Y0089194D03*
X0384423Y0089194D03*
X0386392Y0089194D03*
X0388360Y0089194D03*
X0390329Y0089194D03*
X0392297Y0089194D03*
X0394266Y0089194D03*
X0396234Y0089194D03*
X0398203Y0089194D03*
X0400171Y0089194D03*
X0402140Y0089194D03*
X0404108Y0089194D03*
X0406077Y0089194D03*
X0406077Y0115966D03*
X0404108Y0115966D03*
X0402140Y0115966D03*
X0400171Y0115966D03*
X0398203Y0115966D03*
X0396234Y0115966D03*
X0394266Y0115966D03*
X0392297Y0115966D03*
X0390329Y0115966D03*
X0388360Y0115966D03*
X0386392Y0115966D03*
X0384423Y0115966D03*
X0384423Y0251194D03*
X0386392Y0251194D03*
X0388360Y0251194D03*
X0390329Y0251194D03*
X0392297Y0251194D03*
X0394266Y0251194D03*
X0396234Y0251194D03*
X0398203Y0251194D03*
X0400171Y0251194D03*
X0402140Y0251194D03*
X0404108Y0251194D03*
X0406077Y0251194D03*
X0406077Y0277966D03*
X0404108Y0277966D03*
X0402140Y0277966D03*
X0400171Y0277966D03*
X0398203Y0277966D03*
X0396234Y0277966D03*
X0394266Y0277966D03*
X0392297Y0277966D03*
X0390329Y0277966D03*
X0388360Y0277966D03*
X0386392Y0277966D03*
X0384423Y0277966D03*
X0184077Y0277966D03*
X0182108Y0277966D03*
X0180140Y0277966D03*
X0178171Y0277966D03*
X0176203Y0277966D03*
X0174234Y0277966D03*
X0172266Y0277966D03*
X0170297Y0277966D03*
X0168329Y0277966D03*
X0166360Y0277966D03*
X0164392Y0277966D03*
X0162423Y0277966D03*
X0162423Y0251194D03*
X0164392Y0251194D03*
X0166360Y0251194D03*
X0168329Y0251194D03*
X0170297Y0251194D03*
X0172266Y0251194D03*
X0174234Y0251194D03*
X0176203Y0251194D03*
X0178171Y0251194D03*
X0180140Y0251194D03*
X0182108Y0251194D03*
X0184077Y0251194D03*
D29*
X0186636Y0253753D03*
X0186636Y0255722D03*
X0186636Y0257690D03*
X0186636Y0259659D03*
X0186636Y0261627D03*
X0186636Y0263596D03*
X0186636Y0265564D03*
X0186636Y0267533D03*
X0186636Y0269501D03*
X0186636Y0271470D03*
X0186636Y0273438D03*
X0186636Y0275407D03*
X0159864Y0275407D03*
X0159864Y0273438D03*
X0159864Y0271470D03*
X0159864Y0269501D03*
X0159864Y0267533D03*
X0159864Y0265564D03*
X0159864Y0263596D03*
X0159864Y0261627D03*
X0159864Y0259659D03*
X0159864Y0257690D03*
X0159864Y0255722D03*
X0159864Y0253753D03*
X0159864Y0113407D03*
X0159864Y0111438D03*
X0159864Y0109470D03*
X0159864Y0107501D03*
X0159864Y0105533D03*
X0159864Y0103564D03*
X0159864Y0101596D03*
X0159864Y0099627D03*
X0159864Y0097659D03*
X0159864Y0095690D03*
X0159864Y0093722D03*
X0159864Y0091753D03*
X0186636Y0091753D03*
X0186636Y0093722D03*
X0186636Y0095690D03*
X0186636Y0097659D03*
X0186636Y0099627D03*
X0186636Y0101596D03*
X0186636Y0103564D03*
X0186636Y0105533D03*
X0186636Y0107501D03*
X0186636Y0109470D03*
X0186636Y0111438D03*
X0186636Y0113407D03*
X0381864Y0113407D03*
X0381864Y0111438D03*
X0381864Y0109470D03*
X0381864Y0107501D03*
X0381864Y0105533D03*
X0381864Y0103564D03*
X0381864Y0101596D03*
X0381864Y0099627D03*
X0381864Y0097659D03*
X0381864Y0095690D03*
X0381864Y0093722D03*
X0381864Y0091753D03*
X0408636Y0091753D03*
X0408636Y0093722D03*
X0408636Y0095690D03*
X0408636Y0097659D03*
X0408636Y0099627D03*
X0408636Y0101596D03*
X0408636Y0103564D03*
X0408636Y0105533D03*
X0408636Y0107501D03*
X0408636Y0109470D03*
X0408636Y0111438D03*
X0408636Y0113407D03*
X0408636Y0253753D03*
X0408636Y0255722D03*
X0408636Y0257690D03*
X0408636Y0259659D03*
X0408636Y0261627D03*
X0408636Y0263596D03*
X0408636Y0265564D03*
X0408636Y0267533D03*
X0408636Y0269501D03*
X0408636Y0271470D03*
X0408636Y0273438D03*
X0408636Y0275407D03*
X0381864Y0275407D03*
X0381864Y0273438D03*
X0381864Y0271470D03*
X0381864Y0269501D03*
X0381864Y0267533D03*
X0381864Y0265564D03*
X0381864Y0263596D03*
X0381864Y0261627D03*
X0381864Y0259659D03*
X0381864Y0257690D03*
X0381864Y0255722D03*
X0381864Y0253753D03*
D30*
X0313850Y0316880D03*
X0304750Y0316880D03*
X0295650Y0316880D03*
X0091850Y0316880D03*
X0082750Y0316880D03*
X0073650Y0316880D03*
X0073650Y0154880D03*
X0082750Y0154880D03*
X0091850Y0154880D03*
X0295650Y0154880D03*
X0304750Y0154880D03*
X0313850Y0154880D03*
D31*
X0304750Y0179281D03*
X0082750Y0179281D03*
X0082750Y0341281D03*
X0304750Y0341281D03*
D32*
X0362707Y0333080D03*
X0369793Y0333080D03*
X0147793Y0333080D03*
X0140707Y0333080D03*
X0140707Y0171080D03*
X0147793Y0171080D03*
X0362707Y0171080D03*
X0369793Y0171080D03*
D33*
X0329663Y0123734D03*
X0107663Y0123734D03*
X0107663Y0285734D03*
X0329663Y0285734D03*
D34*
X0331238Y0285537D03*
X0332813Y0285537D03*
X0334388Y0285537D03*
X0335963Y0285537D03*
X0337537Y0285537D03*
X0339112Y0285537D03*
X0340687Y0285537D03*
X0342262Y0285537D03*
X0343837Y0285537D03*
X0343837Y0292623D03*
X0342262Y0292623D03*
X0340687Y0292623D03*
X0339112Y0292623D03*
X0337537Y0292623D03*
X0335963Y0292623D03*
X0334388Y0292623D03*
X0332813Y0292623D03*
X0331238Y0292623D03*
X0329663Y0292623D03*
X0121837Y0292623D03*
X0120262Y0292623D03*
X0118687Y0292623D03*
X0117112Y0292623D03*
X0115537Y0292623D03*
X0113963Y0292623D03*
X0112388Y0292623D03*
X0110813Y0292623D03*
X0109238Y0292623D03*
X0107663Y0292623D03*
X0109238Y0285537D03*
X0110813Y0285537D03*
X0112388Y0285537D03*
X0113963Y0285537D03*
X0115537Y0285537D03*
X0117112Y0285537D03*
X0118687Y0285537D03*
X0120262Y0285537D03*
X0121837Y0285537D03*
X0121837Y0130623D03*
X0120262Y0130623D03*
X0118687Y0130623D03*
X0117112Y0130623D03*
X0115537Y0130623D03*
X0113963Y0130623D03*
X0112388Y0130623D03*
X0110813Y0130623D03*
X0109238Y0130623D03*
X0107663Y0130623D03*
X0109238Y0123537D03*
X0110813Y0123537D03*
X0112388Y0123537D03*
X0113963Y0123537D03*
X0115537Y0123537D03*
X0117112Y0123537D03*
X0118687Y0123537D03*
X0120262Y0123537D03*
X0121837Y0123537D03*
X0329663Y0130623D03*
X0331238Y0130623D03*
X0332813Y0130623D03*
X0334388Y0130623D03*
X0335963Y0130623D03*
X0337537Y0130623D03*
X0339112Y0130623D03*
X0340687Y0130623D03*
X0342262Y0130623D03*
X0343837Y0130623D03*
X0343837Y0123537D03*
X0342262Y0123537D03*
X0340687Y0123537D03*
X0339112Y0123537D03*
X0337537Y0123537D03*
X0335963Y0123537D03*
X0334388Y0123537D03*
X0332813Y0123537D03*
X0331238Y0123537D03*
D35*
X0239774Y0060111D03*
X0217726Y0060111D03*
X0217726Y0209048D03*
X0217726Y0222111D03*
X0239774Y0222111D03*
X0239774Y0209048D03*
X0439726Y0209048D03*
X0439726Y0222111D03*
X0461774Y0222111D03*
X0461774Y0209048D03*
X0461774Y0060111D03*
X0439726Y0060111D03*
X0439726Y0371048D03*
X0461774Y0371048D03*
X0239774Y0371048D03*
X0217726Y0371048D03*
D36*
X0222844Y0356580D03*
X0226781Y0356580D03*
X0230719Y0356580D03*
X0234656Y0356580D03*
X0234656Y0236580D03*
X0230719Y0236580D03*
X0226781Y0236580D03*
X0222844Y0236580D03*
X0222844Y0194580D03*
X0226781Y0194580D03*
X0230719Y0194580D03*
X0234656Y0194580D03*
X0234656Y0074580D03*
X0230719Y0074580D03*
X0226781Y0074580D03*
X0222844Y0074580D03*
X0444844Y0074580D03*
X0448781Y0074580D03*
X0452719Y0074580D03*
X0456656Y0074580D03*
X0456656Y0194580D03*
X0452719Y0194580D03*
X0448781Y0194580D03*
X0444844Y0194580D03*
X0444844Y0236580D03*
X0448781Y0236580D03*
X0452719Y0236580D03*
X0456656Y0236580D03*
X0456656Y0356580D03*
X0452719Y0356580D03*
X0448781Y0356580D03*
X0444844Y0356580D03*
D37*
X0371369Y0326820D03*
X0371369Y0319340D03*
X0361131Y0319340D03*
X0361131Y0323080D03*
X0361131Y0326820D03*
X0149369Y0326820D03*
X0149369Y0319340D03*
X0139131Y0319340D03*
X0139131Y0323080D03*
X0139131Y0326820D03*
X0139131Y0164820D03*
X0139131Y0161080D03*
X0139131Y0157340D03*
X0149369Y0157340D03*
X0149369Y0164820D03*
X0361131Y0164820D03*
X0361131Y0161080D03*
X0361131Y0157340D03*
X0371369Y0157340D03*
X0371369Y0164820D03*
D38*
X0303766Y0129021D03*
X0279750Y0129021D03*
X0279750Y0084139D03*
X0303766Y0084139D03*
X0081766Y0084139D03*
X0057750Y0084139D03*
X0057750Y0129021D03*
X0081766Y0129021D03*
X0081766Y0246139D03*
X0057750Y0246139D03*
X0057750Y0291021D03*
X0081766Y0291021D03*
X0279750Y0291021D03*
X0303766Y0291021D03*
X0303766Y0246139D03*
X0279750Y0246139D03*
D39*
X0279750Y0268580D03*
X0297750Y0268580D03*
X0075750Y0268580D03*
X0057750Y0268580D03*
X0057750Y0106580D03*
X0075750Y0106580D03*
X0279750Y0106580D03*
X0297750Y0106580D03*
D40*
X0349691Y0128438D03*
X0354809Y0128438D03*
X0352250Y0135722D03*
X0368691Y0128438D03*
X0373809Y0128438D03*
X0371250Y0135722D03*
X0151809Y0128438D03*
X0146691Y0128438D03*
X0149250Y0135722D03*
X0132809Y0128438D03*
X0127691Y0128438D03*
X0130250Y0135722D03*
X0127691Y0290438D03*
X0132809Y0290438D03*
X0130250Y0297722D03*
X0146691Y0290438D03*
X0151809Y0290438D03*
X0149250Y0297722D03*
X0349691Y0290438D03*
X0354809Y0290438D03*
X0352250Y0297722D03*
X0368691Y0290438D03*
X0373809Y0290438D03*
X0371250Y0297722D03*
D41*
X0345250Y0328052D03*
X0339250Y0328052D03*
X0339250Y0337108D03*
X0345250Y0337108D03*
X0123250Y0337108D03*
X0117250Y0337108D03*
X0117250Y0328052D03*
X0123250Y0328052D03*
X0123250Y0175108D03*
X0117250Y0175108D03*
X0117250Y0166052D03*
X0123250Y0166052D03*
X0339250Y0166052D03*
X0345250Y0166052D03*
X0345250Y0175108D03*
X0339250Y0175108D03*
D42*
X0283250Y0180580D03*
X0268250Y0180580D03*
X0268250Y0202580D03*
X0283250Y0202580D03*
X0283250Y0342580D03*
X0268250Y0342580D03*
X0268250Y0364580D03*
X0283250Y0364580D03*
X0061250Y0364580D03*
X0046250Y0364580D03*
X0046250Y0342580D03*
X0061250Y0342580D03*
X0061250Y0202580D03*
X0046250Y0202580D03*
X0046250Y0180580D03*
X0061250Y0180580D03*
D43*
X0072185Y0046330D02*
X0072187Y0046449D01*
X0072193Y0046568D01*
X0072203Y0046687D01*
X0072217Y0046805D01*
X0072235Y0046923D01*
X0072256Y0047040D01*
X0072282Y0047156D01*
X0072312Y0047272D01*
X0072345Y0047386D01*
X0072382Y0047499D01*
X0072423Y0047611D01*
X0072468Y0047722D01*
X0072516Y0047831D01*
X0072568Y0047938D01*
X0072624Y0048043D01*
X0072683Y0048147D01*
X0072745Y0048248D01*
X0072811Y0048348D01*
X0072880Y0048445D01*
X0072952Y0048539D01*
X0073028Y0048632D01*
X0073106Y0048721D01*
X0073187Y0048808D01*
X0073272Y0048893D01*
X0073359Y0048974D01*
X0073448Y0049052D01*
X0073541Y0049128D01*
X0073635Y0049200D01*
X0073732Y0049269D01*
X0073832Y0049335D01*
X0073933Y0049397D01*
X0074037Y0049456D01*
X0074142Y0049512D01*
X0074249Y0049564D01*
X0074358Y0049612D01*
X0074469Y0049657D01*
X0074581Y0049698D01*
X0074694Y0049735D01*
X0074808Y0049768D01*
X0074924Y0049798D01*
X0075040Y0049824D01*
X0075157Y0049845D01*
X0075275Y0049863D01*
X0075393Y0049877D01*
X0075512Y0049887D01*
X0075631Y0049893D01*
X0075750Y0049895D01*
X0075869Y0049893D01*
X0075988Y0049887D01*
X0076107Y0049877D01*
X0076225Y0049863D01*
X0076343Y0049845D01*
X0076460Y0049824D01*
X0076576Y0049798D01*
X0076692Y0049768D01*
X0076806Y0049735D01*
X0076919Y0049698D01*
X0077031Y0049657D01*
X0077142Y0049612D01*
X0077251Y0049564D01*
X0077358Y0049512D01*
X0077463Y0049456D01*
X0077567Y0049397D01*
X0077668Y0049335D01*
X0077768Y0049269D01*
X0077865Y0049200D01*
X0077959Y0049128D01*
X0078052Y0049052D01*
X0078141Y0048974D01*
X0078228Y0048893D01*
X0078313Y0048808D01*
X0078394Y0048721D01*
X0078472Y0048632D01*
X0078548Y0048539D01*
X0078620Y0048445D01*
X0078689Y0048348D01*
X0078755Y0048248D01*
X0078817Y0048147D01*
X0078876Y0048043D01*
X0078932Y0047938D01*
X0078984Y0047831D01*
X0079032Y0047722D01*
X0079077Y0047611D01*
X0079118Y0047499D01*
X0079155Y0047386D01*
X0079188Y0047272D01*
X0079218Y0047156D01*
X0079244Y0047040D01*
X0079265Y0046923D01*
X0079283Y0046805D01*
X0079297Y0046687D01*
X0079307Y0046568D01*
X0079313Y0046449D01*
X0079315Y0046330D01*
X0079313Y0046211D01*
X0079307Y0046092D01*
X0079297Y0045973D01*
X0079283Y0045855D01*
X0079265Y0045737D01*
X0079244Y0045620D01*
X0079218Y0045504D01*
X0079188Y0045388D01*
X0079155Y0045274D01*
X0079118Y0045161D01*
X0079077Y0045049D01*
X0079032Y0044938D01*
X0078984Y0044829D01*
X0078932Y0044722D01*
X0078876Y0044617D01*
X0078817Y0044513D01*
X0078755Y0044412D01*
X0078689Y0044312D01*
X0078620Y0044215D01*
X0078548Y0044121D01*
X0078472Y0044028D01*
X0078394Y0043939D01*
X0078313Y0043852D01*
X0078228Y0043767D01*
X0078141Y0043686D01*
X0078052Y0043608D01*
X0077959Y0043532D01*
X0077865Y0043460D01*
X0077768Y0043391D01*
X0077668Y0043325D01*
X0077567Y0043263D01*
X0077463Y0043204D01*
X0077358Y0043148D01*
X0077251Y0043096D01*
X0077142Y0043048D01*
X0077031Y0043003D01*
X0076919Y0042962D01*
X0076806Y0042925D01*
X0076692Y0042892D01*
X0076576Y0042862D01*
X0076460Y0042836D01*
X0076343Y0042815D01*
X0076225Y0042797D01*
X0076107Y0042783D01*
X0075988Y0042773D01*
X0075869Y0042767D01*
X0075750Y0042765D01*
X0075631Y0042767D01*
X0075512Y0042773D01*
X0075393Y0042783D01*
X0075275Y0042797D01*
X0075157Y0042815D01*
X0075040Y0042836D01*
X0074924Y0042862D01*
X0074808Y0042892D01*
X0074694Y0042925D01*
X0074581Y0042962D01*
X0074469Y0043003D01*
X0074358Y0043048D01*
X0074249Y0043096D01*
X0074142Y0043148D01*
X0074037Y0043204D01*
X0073933Y0043263D01*
X0073832Y0043325D01*
X0073732Y0043391D01*
X0073635Y0043460D01*
X0073541Y0043532D01*
X0073448Y0043608D01*
X0073359Y0043686D01*
X0073272Y0043767D01*
X0073187Y0043852D01*
X0073106Y0043939D01*
X0073028Y0044028D01*
X0072952Y0044121D01*
X0072880Y0044215D01*
X0072811Y0044312D01*
X0072745Y0044412D01*
X0072683Y0044513D01*
X0072624Y0044617D01*
X0072568Y0044722D01*
X0072516Y0044829D01*
X0072468Y0044938D01*
X0072423Y0045049D01*
X0072382Y0045161D01*
X0072345Y0045274D01*
X0072312Y0045388D01*
X0072282Y0045504D01*
X0072256Y0045620D01*
X0072235Y0045737D01*
X0072217Y0045855D01*
X0072203Y0045973D01*
X0072193Y0046092D01*
X0072187Y0046211D01*
X0072185Y0046330D01*
D44*
X0075750Y0046330D03*
M02*
