G75*
%MOIN*%
%OFA0B0*%
%FSLAX25Y25*%
%IPPOS*%
%LPD*%
%AMOC8*
5,1,8,0,0,1.08239X$1,22.5*
%
%ADD10R,0.05906X0.13386*%
%ADD11R,0.13386X0.05906*%
%ADD12R,0.10040X0.05906*%
D10*
X0057530Y0058500D03*
X0067530Y0058500D03*
X0077530Y0058500D03*
X0087530Y0058500D03*
X0097530Y0058500D03*
X0107530Y0058500D03*
X0117530Y0058500D03*
X0127530Y0058500D03*
X0137530Y0058500D03*
X0279530Y0058500D03*
X0289530Y0058500D03*
X0299530Y0058500D03*
X0309530Y0058500D03*
X0319530Y0058500D03*
X0329530Y0058500D03*
X0339530Y0058500D03*
X0349530Y0058500D03*
X0359530Y0058500D03*
X0359530Y0156925D03*
X0349530Y0156925D03*
X0339530Y0156925D03*
X0329530Y0156925D03*
X0319530Y0156846D03*
X0309530Y0156925D03*
X0299530Y0156925D03*
X0289530Y0156925D03*
X0279530Y0156925D03*
X0279530Y0220500D03*
X0289530Y0220500D03*
X0299530Y0220500D03*
X0309530Y0220500D03*
X0319530Y0220500D03*
X0329530Y0220500D03*
X0339530Y0220500D03*
X0349530Y0220500D03*
X0359530Y0220500D03*
X0359530Y0318925D03*
X0349530Y0318925D03*
X0339530Y0318925D03*
X0329530Y0318925D03*
X0319530Y0318846D03*
X0309530Y0318925D03*
X0299530Y0318925D03*
X0289530Y0318925D03*
X0279530Y0318925D03*
X0137530Y0318925D03*
X0127530Y0318925D03*
X0117530Y0318925D03*
X0107530Y0318925D03*
X0097530Y0318846D03*
X0087530Y0318925D03*
X0077530Y0318925D03*
X0067530Y0318925D03*
X0057530Y0318925D03*
X0057530Y0220500D03*
X0067530Y0220500D03*
X0077530Y0220500D03*
X0087530Y0220500D03*
X0097530Y0220500D03*
X0107530Y0220500D03*
X0117530Y0220500D03*
X0127530Y0220500D03*
X0137530Y0220500D03*
X0137530Y0156925D03*
X0127530Y0156925D03*
X0117530Y0156925D03*
X0107530Y0156925D03*
X0097530Y0156846D03*
X0087530Y0156925D03*
X0077530Y0156925D03*
X0067530Y0156925D03*
X0057530Y0156925D03*
D11*
X0201230Y0125272D03*
X0201230Y0090154D03*
X0201230Y0080154D03*
X0423230Y0080154D03*
X0423230Y0090154D03*
X0423230Y0125272D03*
X0423230Y0242154D03*
X0423230Y0252154D03*
X0423230Y0287272D03*
X0201230Y0287272D03*
X0201230Y0252154D03*
X0201230Y0242154D03*
D12*
X0199530Y0297272D03*
X0421530Y0297272D03*
X0421530Y0135272D03*
X0199530Y0135272D03*
M02*
