%
M48
M72
T01C0.0150
T02C0.0200
T03C0.0276
T04C0.0354
T05C0.0400
T06C0.0669
T07C0.0800
%
T01
X5075Y6800
X6575Y6800
X9075Y7600
X9745Y7395
X10075Y7400
X10823Y7395
X11568Y7275
X11875Y7115
X12700Y7253
X13092Y7667
X13606Y7978
X13385Y8223
X13638Y8437
X13863Y8678
X13360Y8625
X13030Y8505
X12700Y8385
X11925Y8050
X10831Y9225
X10530Y9847
X10196Y9847
X9866Y9959
X9425Y10350
X10532Y11657
X10856Y11800
X11306Y12024
X11275Y12354
X11725Y12354
X12182Y12175
X12675Y12400
X12466Y11741
X12325Y11400
X12675Y11400
X12675Y11050
X13025Y11300
X13628Y10947
X14675Y9600
X15125Y9750
X14575Y8800
X14594Y7931
X14276Y7782
X13825Y7300
X13466Y7095
X13175Y6750
X13243Y6200
X13263Y5700
X12243Y6185
X11263Y6425
X11263Y5215
X12433Y4877
X13344Y4881
X15325Y6250
X15239Y6813
X14909Y6933
X14923Y7623
X15021Y7953
X15327Y7623
X16319Y6886
X16544Y6644
X16769Y6900
X17058Y6650
X17277Y7029
X17675Y6950
X17663Y7280
X17975Y7650
X18143Y7948
X18275Y7350
X19125Y7400
X19925Y7400
X20750Y6800
X20775Y6200
X20350Y6275
X20425Y5800
X18375Y5650
X17592Y5795
X17262Y5800
X16875Y5155
X15825Y5155
X16922Y7599
X16725Y8050
X16425Y8550
X17406Y8319
X17339Y9404
X17975Y9400
X21025Y8800
X21575Y8650
X21925Y7800
X22675Y8550
X23225Y8550
X23925Y8450
X27275Y9300
X28425Y9300
X26425Y11350
X24070Y12400
X24190Y12750
X21075Y15100
X20675Y15100
X17925Y15200
X17775Y15600
X17775Y15950
X17460Y16277
X17775Y16450
X16075Y16050
X14265Y15200
X13675Y14500
X12434Y14341
X12725Y13500
X10825Y13850
X10709Y14516
X10325Y14550
X11263Y15600
X13243Y16435
X15175Y14500
X16075Y14750
X15375Y13500
X15705Y12450
X16187Y11950
X16608Y12250
X16875Y12450
X17248Y12187
X16981Y11987
X17790Y12365
X15494Y11605
X11441Y11192
X10825Y12350
X10275Y12250
X9875Y12250
X8725Y12850
X7825Y12900
X7025Y12210
X6525Y12650
X6525Y13050
X6525Y13450
X7825Y14500
X6775Y16650
X6275Y16950
X8375Y18350
X8875Y18350
X8875Y17850
X12433Y21077
X13344Y21081
X13263Y21900
X13243Y22400
X13175Y22950
X13466Y23295
X13825Y23500
X14276Y23982
X14594Y24131
X15021Y24153
X14923Y23823
X15327Y23823
X14909Y23133
X15239Y23013
X15325Y22450
X16319Y23086
X16544Y22844
X16769Y23100
X17058Y22850
X17277Y23229
X17675Y23150
X17663Y23480
X17975Y23850
X18143Y24148
X18275Y23550
X19125Y23600
X19925Y23600
X20750Y23000
X20775Y22400
X20350Y22475
X20425Y22000
X18375Y21850
X17592Y21995
X17262Y22000
X16875Y21355
X15825Y21355
X16922Y23799
X16725Y24250
X17406Y24519
X16425Y24750
X17339Y25604
X17975Y25600
X15125Y25950
X14675Y25800
X14575Y25000
X13863Y24878
X13638Y24637
X13385Y24423
X13606Y24178
X13092Y23867
X12700Y23453
X11875Y23315
X11568Y23475
X10823Y23595
X10075Y23600
X9745Y23595
X9075Y23800
X11263Y22625
X12243Y22385
X11263Y21415
X11925Y24250
X12700Y24585
X13030Y24705
X13360Y24825
X10831Y25425
X10530Y26047
X10196Y26047
X9866Y26159
X9425Y26550
X10532Y27857
X10856Y28000
X11306Y28224
X11275Y28554
X11725Y28554
X12182Y28375
X12466Y27941
X12325Y27600
X12675Y27600
X12675Y27250
X13025Y27500
X13628Y27147
X15494Y27805
X16187Y28150
X16608Y28450
X16875Y28650
X17248Y28387
X16981Y28187
X17790Y28565
X15705Y28650
X15375Y29700
X15175Y30700
X14265Y31400
X13675Y30700
X12434Y30541
X12725Y29700
X12675Y28600
X11441Y27392
X10825Y28550
X10275Y28450
X9875Y28450
X8725Y29050
X7825Y29100
X7025Y28410
X7925Y27900
X6525Y28850
X6525Y29250
X6525Y29650
X7825Y30700
X10325Y30750
X10709Y30716
X10825Y30050
X11263Y31800
X13243Y32635
X16075Y32250
X17460Y32477
X17775Y32650
X17775Y32150
X17775Y31800
X17925Y31400
X17580Y30950
X16075Y30950
X18375Y34050
X20675Y31300
X21075Y31300
X23875Y32800
X24325Y32750
X24167Y32442
X24625Y33000
X28475Y33150
X28975Y32850
X31075Y34050
X31075Y34550
X30575Y34550
X33463Y31800
X32909Y30716
X32525Y30750
X33025Y30050
X34634Y30541
X34925Y29700
X34875Y28600
X34382Y28375
X33925Y28554
X33475Y28554
X33506Y28224
X33056Y28000
X32732Y27857
X33641Y27392
X34525Y27600
X34875Y27600
X34875Y27250
X35225Y27500
X35828Y27147
X34666Y27941
X33025Y28550
X32475Y28450
X32075Y28450
X30925Y29050
X30025Y29100
X29225Y28410
X30125Y27900
X28725Y28850
X28725Y29250
X28725Y29650
X30025Y30700
X26425Y27550
X24070Y28600
X24190Y28950
X27275Y25500
X28425Y25500
X31275Y23800
X31945Y23595
X32275Y23600
X33023Y23595
X33768Y23475
X34075Y23315
X34900Y23453
X35292Y23867
X35806Y24178
X35585Y24423
X35838Y24637
X36063Y24878
X35560Y24825
X35230Y24705
X34900Y24585
X34125Y24250
X35375Y22950
X35666Y23295
X36025Y23500
X36476Y23982
X36794Y24131
X37221Y24153
X37123Y23823
X37527Y23823
X37109Y23133
X37439Y23013
X37525Y22450
X38519Y23086
X38744Y22844
X38969Y23100
X39258Y22850
X39477Y23229
X39875Y23150
X39863Y23480
X40175Y23850
X40343Y24148
X40475Y23550
X41325Y23600
X42125Y23600
X42950Y23000
X42975Y22400
X42550Y22475
X42625Y22000
X40575Y21850
X39792Y21995
X39462Y22000
X39075Y21355
X38025Y21355
X35544Y21081
X34633Y21077
X35463Y21900
X35443Y22400
X34443Y22385
X33463Y22625
X33463Y21415
X31075Y18350
X31075Y17850
X30575Y18350
X28475Y16950
X28975Y16650
X30025Y14500
X28725Y13450
X28725Y13050
X28725Y12650
X29225Y12210
X30125Y11700
X30925Y12850
X30025Y12900
X32075Y12250
X32475Y12250
X33025Y12350
X33475Y12354
X33506Y12024
X33056Y11800
X32732Y11657
X33641Y11192
X34525Y11400
X34875Y11400
X34875Y11050
X35225Y11300
X35828Y10947
X34666Y11741
X34382Y12175
X33925Y12354
X34875Y12400
X34925Y13500
X34634Y14341
X35875Y14500
X36465Y15200
X37375Y14500
X38275Y14750
X37575Y13500
X37905Y12450
X38387Y11950
X38808Y12250
X39075Y12450
X39448Y12187
X39181Y11987
X39990Y12365
X37694Y11605
X37325Y9750
X36875Y9600
X36775Y8800
X36063Y8678
X35838Y8437
X35585Y8223
X35806Y7978
X35292Y7667
X34900Y7253
X34075Y7115
X33768Y7275
X33023Y7395
X32275Y7400
X31945Y7395
X31275Y7600
X33031Y9225
X32730Y9847
X32396Y9847
X32066Y9959
X31625Y10350
X34900Y8385
X35230Y8505
X35560Y8625
X36476Y7782
X36794Y7931
X37221Y7953
X37123Y7623
X37527Y7623
X37109Y6933
X37439Y6813
X37525Y6250
X38519Y6886
X38744Y6644
X38969Y6900
X39258Y6650
X39477Y7029
X39875Y6950
X39863Y7280
X40175Y7650
X40343Y7948
X40475Y7350
X41325Y7400
X42125Y7400
X42950Y6800
X42975Y6200
X42550Y6275
X42625Y5800
X40575Y5650
X39792Y5795
X39462Y5800
X39075Y5155
X38025Y5155
X35544Y4881
X34633Y4877
X33463Y5215
X33463Y6425
X34443Y6185
X35443Y6200
X35463Y5700
X35375Y6750
X35666Y7095
X36025Y7300
X34125Y8050
X38625Y8550
X38925Y8050
X39122Y7599
X39606Y8319
X39539Y9404
X40175Y9400
X43225Y8800
X43775Y8650
X44125Y7800
X44875Y8550
X45425Y8550
X46125Y8450
X45675Y5850
X45672Y5400
X46825Y4450
X46125Y4150
X46270Y12400
X46390Y12750
X43275Y15100
X42875Y15100
X40125Y15200
X39975Y15600
X39975Y15950
X39660Y16277
X39975Y16450
X38275Y16050
X39780Y14750
X35443Y16435
X33463Y15600
X32909Y14516
X32525Y14550
X33025Y13850
X40575Y17850
X46075Y16600
X46525Y16550
X46367Y16242
X46825Y16800
X46125Y20350
X46825Y20650
X45672Y21600
X45675Y22050
X44125Y24000
X43775Y24850
X43225Y25000
X44875Y24750
X45425Y24750
X46125Y24650
X46270Y28600
X46390Y28950
X43275Y31300
X42875Y31300
X40125Y31400
X39975Y31800
X39975Y32150
X39660Y32477
X39975Y32650
X40575Y34050
X38275Y32250
X36465Y31400
X35875Y30700
X37375Y30700
X38275Y30950
X37575Y29700
X37905Y28650
X38387Y28150
X38808Y28450
X39075Y28650
X39448Y28387
X39181Y28187
X39990Y28565
X37694Y27805
X37325Y25950
X36875Y25800
X36775Y25000
X38625Y24750
X39606Y24519
X38925Y24250
X39122Y23799
X39539Y25604
X40175Y25600
X33031Y25425
X32730Y26047
X32396Y26047
X32066Y26159
X31625Y26550
X28775Y23000
X27275Y23000
X24625Y20650
X23925Y20350
X23472Y21600
X23475Y22050
X21925Y24000
X21575Y24850
X21025Y25000
X22675Y24750
X23225Y24750
X23925Y24650
X18375Y17850
X17580Y14750
X23875Y16600
X24325Y16550
X24167Y16242
X24625Y16800
X27275Y6800
X28775Y6800
X24625Y4450
X23925Y4150
X23472Y5400
X23475Y5850
X7925Y11700
X6225Y9300
X5075Y9300
X4225Y11350
X5075Y23000
X6575Y23000
X6225Y25500
X5075Y25500
X4225Y27550
X6775Y32850
X6275Y33150
X8375Y34550
X8875Y34550
X8875Y34050
X35443Y32635
X39780Y30950
X46075Y32800
X46525Y32750
X46367Y32442
X46825Y33000
T02
X43925Y27950
X43925Y26950
X42925Y26950
X42925Y27950
X42925Y25950
X43925Y25950
X43925Y11750
X42925Y11750
X42925Y10750
X43925Y10750
X43925Y9750
X42925Y9750
X21725Y9750
X20725Y9750
X20725Y10750
X21725Y10750
X21725Y11750
X20725Y11750
X20725Y25950
X21725Y25950
X21725Y26950
X21725Y27950
X20725Y27950
X20725Y26950
T03
X29075Y33596
X29075Y34304
X6875Y34304
X6875Y33596
X6875Y18104
X6875Y17396
X29075Y17396
X29075Y18104
T04
X6284Y3960
X7466Y3960
X28484Y3960
X29666Y3960
X29666Y20160
X28484Y20160
X7466Y20160
X6284Y20160
T05
X4375Y20550
X4375Y21550
X9875Y20550
X10875Y20550
X11875Y20550
X12875Y20550
X13875Y20550
X14875Y20550
X15875Y20550
X16875Y20550
X17875Y20550
X18875Y20550
X19875Y20550
X19875Y19550
X18875Y19550
X17875Y19550
X16875Y19550
X15875Y19550
X14875Y19550
X13875Y19550
X12875Y19550
X11875Y19550
X10875Y19550
X9875Y19550
X10875Y18350
X11875Y18350
X12875Y18350
X13875Y18350
X14875Y18350
X15875Y18350
X16875Y18350
X17875Y18350
X18875Y18350
X19875Y18350
X19875Y17350
X20875Y17350
X18875Y17350
X17875Y17350
X16875Y17350
X15875Y17350
X14875Y17350
X13875Y17350
X12875Y17350
X11875Y17350
X10875Y17350
X26575Y20550
X26575Y21550
X32075Y20550
X33075Y20550
X34075Y20550
X35075Y20550
X36075Y20550
X37075Y20550
X38075Y20550
X39075Y20550
X40075Y20550
X41075Y20550
X42075Y20550
X42075Y19550
X41075Y19550
X40075Y19550
X39075Y19550
X38075Y19550
X37075Y19550
X36075Y19550
X35075Y19550
X34075Y19550
X33075Y19550
X32075Y19550
X33075Y18350
X34075Y18350
X35075Y18350
X36075Y18350
X37075Y18350
X38075Y18350
X39075Y18350
X40075Y18350
X41075Y18350
X42075Y18350
X42075Y17350
X43075Y17350
X41075Y17350
X40075Y17350
X39075Y17350
X38075Y17350
X37075Y17350
X36075Y17350
X35075Y17350
X34075Y17350
X33075Y17350
X26575Y5350
X26575Y4350
X32075Y4350
X33075Y4350
X34075Y4350
X35075Y4350
X36075Y4350
X37075Y4350
X38075Y4350
X39075Y4350
X40075Y4350
X41075Y4350
X42075Y4350
X42075Y3350
X41075Y3350
X40075Y3350
X39075Y3350
X38075Y3350
X37075Y3350
X36075Y3350
X35075Y3350
X34075Y3350
X33075Y3350
X32075Y3350
X19875Y3350
X18875Y3350
X17875Y3350
X16875Y3350
X15875Y3350
X14875Y3350
X13875Y3350
X12875Y3350
X11875Y3350
X10875Y3350
X9875Y3350
X9875Y4350
X10875Y4350
X11875Y4350
X12875Y4350
X13875Y4350
X14875Y4350
X15875Y4350
X16875Y4350
X17875Y4350
X18875Y4350
X19875Y4350
X4375Y4350
X4375Y5350
X10875Y33550
X11875Y33550
X12875Y33550
X13875Y33550
X14875Y33550
X15875Y33550
X16875Y33550
X17875Y33550
X18875Y33550
X19875Y33550
X20875Y33550
X19875Y34550
X18875Y34550
X17875Y34550
X16875Y34550
X15875Y34550
X14875Y34550
X13875Y34550
X12875Y34550
X11875Y34550
X10875Y34550
X33075Y34550
X34075Y34550
X35075Y34550
X36075Y34550
X37075Y34550
X38075Y34550
X39075Y34550
X40075Y34550
X41075Y34550
X42075Y34550
X42075Y33550
X43075Y33550
X41075Y33550
X40075Y33550
X39075Y33550
X38075Y33550
X37075Y33550
X36075Y33550
X35075Y33550
X34075Y33550
X33075Y33550
T06
X43075Y34550
X20875Y34550
X20875Y18350
X43075Y18350
T07
X29775Y24250
X27975Y24250
X7575Y24250
X5775Y24250
X5775Y8050
X7575Y8050
X27975Y8050
X29775Y8050
M30
